# 3ds Max Wavefront OBJ Exporter v0.99 - (c)2007 guruware
# File Created: 12.05.2022 20:13:42

mtllib colaTiranosaurio1.mtl

#
# object Tyrannosaurus_2
#

v  -0.2739 9.4997 -15.5737
v  -0.2739 10.0474 -16.1215
v  -0.2739 9.4997 -16.1215
v  -0.2739 9.4997 -14.4782
v  -0.2739 10.0474 -15.0260
v  -0.2739 9.4997 -15.0260
v  -0.2739 10.0474 -15.5737
v  -0.2739 8.9519 -14.4782
v  -0.2739 8.9519 -15.0260
v  -0.2739 8.9519 -15.5737
v  -0.2739 10.0474 -16.6692
v  -0.2739 9.4997 -16.6692
v  -0.2739 9.4997 -13.3827
v  -0.2739 10.0474 -13.9305
v  -0.2739 9.4997 -13.9305
v  -0.2739 9.4997 -12.2872
v  -0.2739 10.0474 -12.8350
v  -0.2739 9.4997 -12.8350
v  -0.2739 10.0474 -13.3827
v  -0.2739 9.4997 -11.1917
v  -0.2739 10.0474 -11.7395
v  -0.2739 9.4997 -11.7395
v  -0.2739 9.4997 -10.0962
v  -0.2739 10.0474 -10.6440
v  -0.2739 9.4997 -10.6440
v  -0.2739 10.0474 -10.0962
v  -0.2739 10.5952 -10.6440
v  -0.2739 10.0474 -11.1917
v  -0.2739 8.9519 -13.3827
v  -0.2739 8.9519 -13.9305
v  -0.2739 8.9519 -12.2872
v  -0.2739 8.9519 -12.8350
v  -0.2739 8.9519 -11.1917
v  -0.2739 8.9519 -11.7395
v  -0.2739 8.9519 -10.0962
v  -0.2739 8.9519 -10.6440
v  -0.2739 10.0474 -12.2872
v  -0.2739 10.0474 -14.4782
v  -0.2739 8.4042 -9.0007
v  -0.2739 8.9519 -9.5485
v  -0.2739 8.4042 -9.5485
v  -0.2739 8.4042 -7.9052
v  -0.2739 8.9519 -8.4530
v  -0.2739 8.4042 -8.4530
v  -0.2739 8.9519 -9.0007
v  -0.2739 8.4042 -6.8097
v  -0.2739 8.9519 -7.3575
v  -0.2739 8.4042 -7.3575
v  -0.2739 8.4042 -5.7142
v  -0.2739 8.9519 -6.2619
v  -0.2739 8.4042 -6.2619
v  -0.2739 8.9519 -6.8097
v  -0.2739 9.4997 -9.0007
v  -0.2739 10.0474 -9.5485
v  -0.2739 9.4997 -9.5485
v  -0.2739 9.4997 -7.9052
v  -0.2739 10.0474 -8.4530
v  -0.2739 9.4997 -8.4530
v  -0.2739 10.0474 -9.0007
v  -0.2739 10.5952 -9.5485
v  -0.2739 10.0474 -7.9052
v  -0.2739 10.5952 -8.4530
v  -0.2739 10.5952 -9.0007
v  -0.2739 9.4997 -6.8097
v  -0.2739 10.0474 -7.3575
v  -0.2739 9.4997 -7.3575
v  -0.2739 9.4997 -5.7142
v  -0.2739 10.0474 -6.2619
v  -0.2739 9.4997 -6.2619
v  -0.2739 10.0474 -6.8097
v  -0.2739 10.5952 -7.3575
v  -0.2739 10.0474 -5.7142
v  -0.2739 10.5952 -6.2619
v  -0.2739 11.1429 -6.8097
v  -0.2739 10.5952 -6.8097
v  -0.2739 8.9519 -7.9052
v  -0.2739 8.9519 -5.7142
v  -0.2739 10.5952 -7.9052
v  -0.2739 8.4042 -4.6187
v  -0.2739 8.9519 -5.1664
v  -0.2739 8.4042 -5.1664
v  -0.2739 7.8564 -4.6187
v  -0.2739 7.8564 -5.1664
v  -0.2739 9.4997 -4.6187
v  -0.2739 10.0474 -5.1664
v  -0.2739 9.4997 -5.1664
v  -0.2739 10.0474 -4.6187
v  -0.2739 10.5952 -5.1664
v  -0.2739 8.9519 -4.6187
v  -0.2739 11.1429 -5.7142
v  -0.2739 10.5952 -5.7142
v  -0.2739 10.5952 -10.0962
v  0.2739 10.0474 -15.5737
v  0.2739 9.4997 -16.1215
v  0.2739 10.0474 -16.1215
v  0.2739 10.0474 -14.4782
v  0.2739 9.4997 -15.0260
v  0.2739 10.0474 -15.0260
v  0.2739 9.4997 -15.5737
v  0.2739 9.4997 -14.4782
v  0.2739 8.9519 -15.0260
v  0.2739 8.9519 -15.5737
v  0.2739 9.4997 -16.6692
v  0.2739 10.0474 -16.6692
v  0.2739 10.0474 -13.3827
v  0.2739 9.4997 -13.9305
v  0.2739 10.0474 -13.9305
v  0.2739 10.0474 -12.2872
v  0.2739 9.4997 -12.8350
v  0.2739 10.0474 -12.8350
v  0.2739 9.4997 -13.3827
v  0.2739 10.0474 -11.1917
v  0.2739 9.4997 -11.7395
v  0.2739 10.0474 -11.7395
v  0.2739 10.0474 -10.0962
v  0.2739 9.4997 -10.6440
v  0.2739 10.0474 -10.6440
v  0.2739 10.5952 -10.0962
v  0.2739 10.5952 -10.6440
v  0.2739 9.4997 -11.1917
v  0.2739 8.9519 -13.9305
v  0.2739 9.4997 -12.2872
v  0.2739 8.9519 -12.8350
v  0.2739 8.9519 -13.3827
v  0.2739 8.9519 -11.7395
v  0.2739 9.4997 -10.0962
v  0.2739 8.9519 -10.6440
v  0.2739 8.9519 -11.1917
v  0.2739 8.9519 -12.2872
v  0.2739 8.9519 -14.4782
v  0.2739 8.9519 -9.0007
v  0.2739 8.4042 -9.5485
v  0.2739 8.9519 -9.5485
v  0.2739 8.9519 -7.9052
v  0.2739 8.4042 -8.4530
v  0.2739 8.9519 -8.4530
v  0.2739 8.4042 -9.0007
v  0.2739 8.9519 -6.8097
v  0.2739 8.4042 -7.3575
v  0.2739 8.9519 -7.3575
v  0.2739 8.9519 -5.7142
v  0.2739 8.4042 -6.2619
v  0.2739 8.9519 -6.2619
v  0.2739 8.4042 -6.8097
v  0.2739 10.0474 -9.0007
v  0.2739 9.4997 -9.5485
v  0.2739 10.0474 -9.5485
v  0.2739 10.0474 -7.9052
v  0.2739 9.4997 -8.4530
v  0.2739 10.0474 -8.4530
v  0.2739 10.5952 -9.0007
v  0.2739 10.5952 -9.5485
v  0.2739 10.5952 -7.9052
v  0.2739 10.5952 -8.4530
v  0.2739 9.4997 -9.0007
v  0.2739 10.0474 -6.8097
v  0.2739 9.4997 -7.3575
v  0.2739 10.0474 -7.3575
v  0.2739 10.0474 -5.7142
v  0.2739 9.4997 -6.2619
v  0.2739 10.0474 -6.2619
v  0.2739 10.5952 -6.8097
v  0.2739 10.5952 -7.3575
v  0.2739 10.5952 -5.7142
v  0.2739 10.5952 -6.2619
v  0.2739 9.4997 -6.8097
v  0.2739 11.1429 -6.2619
v  0.2739 11.1429 -6.8097
v  0.2739 9.4997 -7.9052
v  0.2739 9.4997 -5.7142
v  0.2739 8.4042 -7.9052
v  0.2739 8.9519 -4.6187
v  0.2739 8.4042 -5.1664
v  0.2739 8.9519 -5.1664
v  0.2739 8.4042 -4.6187
v  0.2739 7.8564 -5.1664
v  0.2739 10.0474 -4.6187
v  0.2739 9.4997 -5.1664
v  0.2739 10.0474 -5.1664
v  0.2739 10.5952 -4.6187
v  0.2739 10.5952 -5.1664
v  0.2739 9.4997 -4.6187
v  0.2739 8.4042 -5.7142
v  0.2739 11.1429 -5.1664
v  0.2739 11.1429 -5.7142
v  0.2739 8.9519 -10.0962
v  -0.2739 11.1429 -6.2619
v  -0.2739 10.5952 -4.6187
v  -0.2739 11.1429 -5.1664
v  0.2739 7.8564 -4.6187
# 190 vertices

vn -1.0000 0.0000 0.0000
vn 1.0000 0.0000 0.0000
vn 0.0000 -1.0000 0.0000
vn 0.0000 0.0000 -1.0000
vn 0.0000 1.0000 0.0000
vn 0.0000 0.0000 1.0000
# 6 vertex normals

vt 0.7374 0.3162 0.0000
vt 0.7386 0.2938 0.0000
vt 0.7492 0.3056 0.0000
vt 0.7138 0.3374 0.0000
vt 0.7150 0.3150 0.0000
vt 0.7256 0.3268 0.0000
vt 0.7268 0.3044 0.0000
vt 0.7120 0.7120 0.0000
vt 0.7132 0.6896 0.0000
vt 0.7238 0.7014 0.0000
vt 0.7250 0.6790 0.0000
vt 0.7356 0.6908 0.0000
vt 0.7504 0.2832 0.0000
vt 0.7611 0.2950 0.0000
vt 0.6901 0.3587 0.0000
vt 0.6913 0.3362 0.0000
vt 0.7019 0.3480 0.0000
vt 0.6665 0.3799 0.0000
vt 0.6677 0.3574 0.0000
vt 0.6783 0.3693 0.0000
vt 0.6795 0.3468 0.0000
vt 0.6428 0.4011 0.0000
vt 0.6440 0.3787 0.0000
vt 0.6547 0.3905 0.0000
vt 0.6068 0.7851 0.0000
vt 0.6080 0.7626 0.0000
vt 0.6186 0.7745 0.0000
vt 0.6086 0.4105 0.0000
vt 0.6098 0.3881 0.0000
vt 0.6204 0.3999 0.0000
vt 0.6310 0.4117 0.0000
vt 0.6322 0.3893 0.0000
vt 0.6883 0.7332 0.0000
vt 0.6895 0.7108 0.0000
vt 0.7002 0.7226 0.0000
vt 0.6647 0.7544 0.0000
vt 0.6659 0.7320 0.0000
vt 0.6765 0.7438 0.0000
vt 0.6777 0.7214 0.0000
vt 0.6410 0.7757 0.0000
vt 0.6423 0.7532 0.0000
vt 0.6529 0.7651 0.0000
vt 0.6174 0.7969 0.0000
vt 0.6292 0.7863 0.0000
vt 0.6304 0.7638 0.0000
vt 0.6559 0.3681 0.0000
vt 0.6541 0.7426 0.0000
vt 0.7032 0.3256 0.0000
vt 0.7014 0.7002 0.0000
vt 0.6044 0.8299 0.0000
vt 0.6056 0.8075 0.0000
vt 0.6162 0.8193 0.0000
vt 0.5807 0.8512 0.0000
vt 0.5819 0.8287 0.0000
vt 0.5925 0.8405 0.0000
vt 0.5938 0.8181 0.0000
vt 0.5571 0.8724 0.0000
vt 0.5583 0.8500 0.0000
vt 0.5689 0.8618 0.0000
vt 0.5334 0.8936 0.0000
vt 0.5346 0.8712 0.0000
vt 0.5453 0.8830 0.0000
vt 0.5465 0.8606 0.0000
vt 0.5831 0.8063 0.0000
vt 0.5844 0.7839 0.0000
vt 0.5950 0.7957 0.0000
vt 0.5595 0.8275 0.0000
vt 0.5607 0.8051 0.0000
vt 0.5713 0.8169 0.0000
vt 0.5849 0.4317 0.0000
vt 0.5861 0.4093 0.0000
vt 0.5968 0.4211 0.0000
vt 0.5613 0.4529 0.0000
vt 0.5625 0.4305 0.0000
vt 0.5731 0.4423 0.0000
vt 0.5725 0.7945 0.0000
vt 0.5743 0.4199 0.0000
vt 0.5359 0.8487 0.0000
vt 0.5371 0.8263 0.0000
vt 0.5477 0.8381 0.0000
vt 0.5122 0.8700 0.0000
vt 0.5134 0.8475 0.0000
vt 0.5240 0.8594 0.0000
vt 0.5376 0.4742 0.0000
vt 0.5389 0.4517 0.0000
vt 0.5495 0.4636 0.0000
vt 0.5140 0.4954 0.0000
vt 0.5152 0.4730 0.0000
vt 0.5258 0.4848 0.0000
vt 0.5252 0.8369 0.0000
vt 0.5028 0.8357 0.0000
vt 0.5040 0.8133 0.0000
vt 0.5146 0.8251 0.0000
vt 0.5270 0.4623 0.0000
vt 0.5701 0.8393 0.0000
vt 0.5228 0.8818 0.0000
vt 0.5489 0.8157 0.0000
vt 0.5507 0.4411 0.0000
vt 0.5098 0.9148 0.0000
vt 0.5110 0.8924 0.0000
vt 0.5216 0.9042 0.0000
vt 0.5204 0.9267 0.0000
vt 0.5322 0.9160 0.0000
vt 0.4886 0.8912 0.0000
vt 0.4898 0.8688 0.0000
vt 0.5004 0.8806 0.0000
vt 0.4904 0.5166 0.0000
vt 0.4916 0.4942 0.0000
vt 0.5022 0.5060 0.0000
vt 0.4992 0.9030 0.0000
vt 0.5016 0.8581 0.0000
vt 0.4792 0.8569 0.0000
vt 0.4804 0.8345 0.0000
vt 0.4910 0.8463 0.0000
vt 0.5034 0.4836 0.0000
vt 0.5962 0.7732 0.0000
vt 0.5980 0.3987 0.0000
vt 0.4977 0.4060 0.0000
vt 0.4860 0.4155 0.0000
vt 0.4871 0.4050 0.0000
vt 0.5188 0.4082 0.0000
vt 0.5072 0.4177 0.0000
vt 0.5083 0.4071 0.0000
vt 0.4966 0.4166 0.0000
vt 0.5053 0.7815 0.0000
vt 0.4937 0.7910 0.0000
vt 0.4948 0.7804 0.0000
vt 0.4831 0.7899 0.0000
vt 0.4842 0.7793 0.0000
vt 0.4755 0.4144 0.0000
vt 0.4766 0.4039 0.0000
vt 0.5400 0.4104 0.0000
vt 0.5283 0.4198 0.0000
vt 0.5294 0.4093 0.0000
vt 0.5611 0.4125 0.0000
vt 0.5494 0.4220 0.0000
vt 0.5505 0.4114 0.0000
vt 0.5389 0.4209 0.0000
vt 0.5822 0.4147 0.0000
vt 0.5706 0.4242 0.0000
vt 0.5717 0.4136 0.0000
vt 0.6034 0.4168 0.0000
vt 0.5917 0.4263 0.0000
vt 0.5928 0.4158 0.0000
vt 0.6044 0.4063 0.0000
vt 0.5939 0.4052 0.0000
vt 0.5811 0.4252 0.0000
vt 0.5265 0.7837 0.0000
vt 0.5148 0.7932 0.0000
vt 0.5159 0.7826 0.0000
vt 0.5476 0.7858 0.0000
vt 0.5360 0.7953 0.0000
vt 0.5370 0.7847 0.0000
vt 0.5254 0.7942 0.0000
vt 0.5687 0.7880 0.0000
vt 0.5571 0.7975 0.0000
vt 0.5582 0.7869 0.0000
vt 0.5899 0.7902 0.0000
vt 0.5782 0.7996 0.0000
vt 0.5793 0.7891 0.0000
vt 0.5677 0.7986 0.0000
vt 0.5600 0.4231 0.0000
vt 0.5465 0.7964 0.0000
vt 0.5177 0.4188 0.0000
vt 0.5043 0.7921 0.0000
vt 0.6099 0.8029 0.0000
vt 0.5983 0.8124 0.0000
vt 0.5994 0.8018 0.0000
vt 0.6311 0.8050 0.0000
vt 0.6194 0.8145 0.0000
vt 0.6205 0.8040 0.0000
vt 0.6088 0.8134 0.0000
vt 0.6522 0.8072 0.0000
vt 0.6405 0.8167 0.0000
vt 0.6416 0.8061 0.0000
vt 0.6733 0.8094 0.0000
vt 0.6617 0.8188 0.0000
vt 0.6628 0.8083 0.0000
vt 0.6511 0.8178 0.0000
vt 0.6121 0.7817 0.0000
vt 0.6004 0.7912 0.0000
vt 0.6015 0.7807 0.0000
vt 0.6332 0.7839 0.0000
vt 0.6216 0.7934 0.0000
vt 0.6227 0.7828 0.0000
vt 0.6256 0.4084 0.0000
vt 0.6139 0.4179 0.0000
vt 0.6150 0.4074 0.0000
vt 0.6467 0.4106 0.0000
vt 0.6351 0.4201 0.0000
vt 0.6361 0.4095 0.0000
vt 0.6110 0.7923 0.0000
vt 0.6245 0.4190 0.0000
vt 0.6544 0.7861 0.0000
vt 0.6427 0.7956 0.0000
vt 0.6438 0.7850 0.0000
vt 0.6755 0.7882 0.0000
vt 0.6638 0.7977 0.0000
vt 0.6649 0.7871 0.0000
vt 0.6678 0.4128 0.0000
vt 0.6562 0.4222 0.0000
vt 0.6573 0.4117 0.0000
vt 0.6890 0.4149 0.0000
vt 0.6773 0.4244 0.0000
vt 0.6784 0.4138 0.0000
vt 0.6533 0.7966 0.0000
vt 0.6671 0.7660 0.0000
vt 0.6554 0.7755 0.0000
vt 0.6565 0.7649 0.0000
vt 0.6668 0.4233 0.0000
vt 0.6321 0.7945 0.0000
vt 0.6744 0.7988 0.0000
vt 0.6300 0.8156 0.0000
vt 0.6456 0.4212 0.0000
vt 0.6945 0.8115 0.0000
vt 0.6828 0.8210 0.0000
vt 0.6839 0.8104 0.0000
vt 0.6934 0.8221 0.0000
vt 0.6817 0.8316 0.0000
vt 0.6966 0.7904 0.0000
vt 0.6850 0.7999 0.0000
vt 0.6860 0.7893 0.0000
vt 0.7101 0.4171 0.0000
vt 0.6985 0.4266 0.0000
vt 0.6995 0.4160 0.0000
vt 0.6955 0.8010 0.0000
vt 0.6722 0.8199 0.0000
vt 0.6882 0.7682 0.0000
vt 0.6766 0.7777 0.0000
vt 0.6776 0.7671 0.0000
vt 0.6879 0.4255 0.0000
vt 0.5910 0.7796 0.0000
vt 0.5888 0.8007 0.0000
vt 0.5870 0.6573 0.0000
vt 0.5560 0.6883 0.0000
vt 0.5560 0.6573 0.0000
vt 0.5870 0.6262 0.0000
vt 0.5560 0.6262 0.0000
vt 0.6180 0.7503 0.0000
vt 0.6490 0.7814 0.0000
vt 0.6180 0.7814 0.0000
vt 0.6801 0.6573 0.0000
vt 0.6490 0.6883 0.0000
vt 0.6490 0.6573 0.0000
vt 0.4690 0.2910 0.0000
vt 0.5010 0.2590 0.0000
vt 0.5010 0.2910 0.0000
vt 0.4690 0.3551 0.0000
vt 0.5010 0.3230 0.0000
vt 0.5010 0.3551 0.0000
vt 0.4690 0.3230 0.0000
vt 0.6801 0.6262 0.0000
vt 0.6490 0.6262 0.0000
vt 0.4690 0.2590 0.0000
vt 0.5010 0.2270 0.0000
vt 0.7111 0.6883 0.0000
vt 0.6801 0.7193 0.0000
vt 0.6801 0.6883 0.0000
vt 0.5870 0.7193 0.0000
vt 0.5560 0.7503 0.0000
vt 0.5560 0.7193 0.0000
vt 0.5870 0.7814 0.0000
vt 0.5560 0.8124 0.0000
vt 0.5560 0.7814 0.0000
vt 0.5870 0.7503 0.0000
vt 0.5870 0.8434 0.0000
vt 0.5560 0.8744 0.0000
vt 0.5560 0.8434 0.0000
vt 0.5870 0.9055 0.0000
vt 0.5560 0.9365 0.0000
vt 0.5560 0.9055 0.0000
vt 0.5870 0.8744 0.0000
vt 0.4690 0.4191 0.0000
vt 0.5010 0.3871 0.0000
vt 0.5010 0.4191 0.0000
vt 0.4690 0.4832 0.0000
vt 0.5010 0.4512 0.0000
vt 0.5010 0.4832 0.0000
vt 0.4690 0.4512 0.0000
vt 0.4690 0.5473 0.0000
vt 0.5010 0.5152 0.0000
vt 0.5010 0.5473 0.0000
vt 0.5331 0.2270 0.0000
vt 0.5331 0.2590 0.0000
vt 0.4690 0.5793 0.0000
vt 0.5010 0.5793 0.0000
vt 0.5878 0.6527 0.0000
vt 0.5558 0.6848 0.0000
vt 0.5558 0.6527 0.0000
vt 0.5870 0.8124 0.0000
vt 0.4690 0.5152 0.0000
vt 0.5870 0.6883 0.0000
vt 0.4690 0.3871 0.0000
vt 0.6180 0.6262 0.0000
vt 0.7111 0.6573 0.0000
vt 0.6180 0.6883 0.0000
vt 0.6180 0.6573 0.0000
vt 0.6180 0.8124 0.0000
vt 0.5331 0.2910 0.0000
vt 0.5331 0.3230 0.0000
vt 0.5331 0.3551 0.0000
vt 0.5331 0.3871 0.0000
vt 0.5331 0.4191 0.0000
vt 0.5331 0.4512 0.0000
vt 0.5878 0.7488 0.0000
vt 0.5558 0.7809 0.0000
vt 0.5558 0.7488 0.0000
vt 0.5651 0.2590 0.0000
vt 0.5971 0.2270 0.0000
vt 0.5971 0.2590 0.0000
vt 0.5238 0.7809 0.0000
vt 0.5238 0.7488 0.0000
vt 0.5878 0.6848 0.0000
vt 0.5558 0.7168 0.0000
vt 0.5651 0.3230 0.0000
vt 0.5971 0.3551 0.0000
vt 0.5651 0.3551 0.0000
vt 0.6180 0.7193 0.0000
vt 0.6292 0.2270 0.0000
vt 0.6292 0.2590 0.0000
vt 0.6183 0.9292 0.0000
vt 0.5687 0.9788 0.0000
vt 0.5687 0.9292 0.0000
vt 0.6180 0.8434 0.0000
vt 0.5971 0.2910 0.0000
vt 0.6292 0.3230 0.0000
vt 0.5971 0.3230 0.0000
vt 0.5870 0.9365 0.0000
vt 0.5560 0.9675 0.0000
vt 0.4922 0.8239 0.0000
vt 0.4780 0.8794 0.0000
vt 0.4797 0.5048 0.0000
vt 0.4685 0.8451 0.0000
vt 0.6023 0.4274 0.0000
vt 0.6660 0.7766 0.0000
vt 0.6923 0.8327 0.0000
vt 0.7090 0.4276 0.0000
vt 0.6871 0.7787 0.0000
vt 0.6490 0.7503 0.0000
vt 0.4690 0.2270 0.0000
vt 0.7111 0.7193 0.0000
vt 0.7111 0.6262 0.0000
vt 0.5878 0.7809 0.0000
vt 0.5651 0.2270 0.0000
vt 0.5878 0.7168 0.0000
vt 0.6183 0.9788 0.0000
vt 0.6180 0.8744 0.0000
vt 0.6292 0.2910 0.0000
vt 0.5870 0.9675 0.0000
# 349 texture coords

o Tyrannosaurus_2
g Tyrannosaurus_2
usemtl Material_003
s off
f 1/1/1 2/2/1 3/3/1 
f 4/4/1 5/5/1 6/6/1 
f 6/6/1 7/7/1 1/1/1 
f 8/8/1 6/9/1 9/10/1 
f 9/10/1 1/11/1 10/12/1 
f 3/3/1 11/13/1 12/14/1 
f 13/15/1 14/16/1 15/17/1 
f 16/18/1 17/19/1 18/20/1 
f 18/20/1 19/21/1 13/15/1 
f 20/22/1 21/23/1 22/24/1 
f 23/25/1 24/26/1 25/27/1 
f 26/28/1 27/29/1 24/30/1 
f 25/31/1 28/32/1 20/22/1 
f 29/33/1 15/34/1 30/35/1 
f 31/36/1 18/37/1 32/38/1 
f 32/38/1 13/39/1 29/33/1 
f 33/40/1 22/41/1 34/42/1 
f 35/43/1 25/27/1 36/44/1 
f 36/44/1 20/45/1 33/40/1 
f 22/24/1 37/46/1 16/18/1 
f 34/42/1 16/47/1 31/36/1 
f 15/17/1 38/48/1 4/4/1 
f 30/35/1 4/49/1 8/8/1 
f 39/50/1 40/51/1 41/52/1 
f 42/53/1 43/54/1 44/55/1 
f 44/55/1 45/56/1 39/50/1 
f 46/57/1 47/58/1 48/59/1 
f 49/60/1 50/61/1 51/62/1 
f 51/62/1 52/63/1 46/57/1 
f 53/64/1 54/65/1 55/66/1 
f 56/67/1 57/68/1 58/69/1 
f 59/70/1 60/71/1 54/72/1 
f 61/73/1 62/74/1 57/75/1 
f 58/69/1 59/76/1 53/64/1 
f 57/75/1 63/77/1 59/70/1 
f 64/78/1 65/79/1 66/80/1 
f 67/81/1 68/82/1 69/83/1 
f 70/84/1 71/85/1 65/86/1 
f 72/87/1 73/88/1 68/89/1 
f 69/83/1 70/90/1 64/78/1 
f 73/91/1 74/92/1 75/93/1 
f 68/89/1 75/94/1 70/84/1 
f 45/56/1 55/66/1 40/51/1 
f 76/95/1 58/69/1 43/54/1 
f 43/54/1 53/64/1 45/56/1 
f 52/63/1 66/80/1 47/58/1 
f 77/96/1 69/83/1 50/61/1 
f 50/61/1 64/78/1 52/63/1 
f 48/59/1 76/95/1 42/53/1 
f 66/80/1 61/97/1 56/67/1 
f 65/86/1 78/98/1 61/73/1 
f 47/58/1 56/67/1 76/95/1 
f 79/99/1 80/100/1 81/101/1 
f 82/102/1 81/101/1 83/103/1 
f 84/104/1 85/105/1 86/106/1 
f 87/107/1 88/108/1 85/109/1 
f 89/110/1 86/106/1 80/100/1 
f 81/101/1 77/96/1 49/60/1 
f 86/106/1 72/111/1 67/81/1 
f 88/112/1 90/113/1 91/114/1 
f 85/109/1 91/115/1 72/87/1 
f 80/100/1 67/81/1 77/96/1 
f 55/66/1 26/116/1 23/25/1 
f 54/72/1 92/117/1 26/28/1 
f 40/51/1 23/25/1 35/43/1 
f 93/118/2 94/119/2 95/120/2 
f 96/121/2 97/122/2 98/123/2 
f 98/123/2 99/124/2 93/118/2 
f 100/125/2 101/126/2 97/127/2 
f 97/127/2 102/128/2 99/129/2 
f 95/120/2 103/130/2 104/131/2 
f 105/132/2 106/133/2 107/134/2 
f 108/135/2 109/136/2 110/137/2 
f 110/137/2 111/138/2 105/132/2 
f 112/139/2 113/140/2 114/141/2 
f 115/142/2 116/143/2 117/144/2 
f 118/145/2 117/144/2 119/146/2 
f 117/144/2 120/147/2 112/139/2 
f 111/148/2 121/149/2 106/150/2 
f 122/151/2 123/152/2 109/153/2 
f 109/153/2 124/154/2 111/148/2 
f 120/155/2 125/156/2 113/157/2 
f 126/158/2 127/159/2 116/160/2 
f 116/160/2 128/161/2 120/155/2 
f 114/141/2 122/162/2 108/135/2 
f 113/157/2 129/163/2 122/151/2 
f 107/134/2 100/164/2 96/121/2 
f 106/150/2 130/165/2 100/125/2 
f 131/166/2 132/167/2 133/168/2 
f 134/169/2 135/170/2 136/171/2 
f 136/171/2 137/172/2 131/166/2 
f 138/173/2 139/174/2 140/175/2 
f 141/176/2 142/177/2 143/178/2 
f 143/178/2 144/179/2 138/173/2 
f 145/180/2 146/181/2 147/182/2 
f 148/183/2 149/184/2 150/185/2 
f 151/186/2 147/187/2 152/188/2 
f 153/189/2 150/190/2 154/191/2 
f 150/185/2 155/192/2 145/180/2 
f 154/191/2 145/193/2 151/186/2 
f 156/194/2 157/195/2 158/196/2 
f 159/197/2 160/198/2 161/199/2 
f 162/200/2 158/201/2 163/202/2 
f 164/203/2 161/204/2 165/205/2 
f 161/199/2 166/206/2 156/194/2 
f 167/207/2 162/208/2 168/209/2 
f 165/205/2 156/210/2 162/200/2 
f 155/192/2 133/168/2 146/181/2 
f 169/211/2 136/171/2 149/184/2 
f 149/184/2 131/166/2 155/192/2 
f 166/206/2 140/175/2 157/195/2 
f 170/212/2 143/178/2 160/198/2 
f 160/198/2 138/173/2 166/206/2 
f 140/175/2 171/213/2 134/169/2 
f 158/196/2 169/211/2 148/183/2 
f 163/202/2 148/214/2 153/189/2 
f 157/195/2 134/169/2 169/211/2 
f 172/215/2 173/216/2 174/217/2 
f 175/218/2 176/219/2 173/216/2 
f 177/220/2 178/221/2 179/222/2 
f 180/223/2 179/224/2 181/225/2 
f 182/226/2 174/217/2 178/221/2 
f 174/217/2 183/227/2 141/176/2 
f 179/222/2 170/212/2 159/197/2 
f 184/228/2 164/229/2 185/230/2 
f 181/225/2 159/231/2 164/203/2 
f 178/221/2 141/176/2 170/212/2 
f 147/182/2 126/158/2 115/232/2 
f 152/188/2 115/142/2 118/145/2 
f 146/181/2 186/233/2 126/158/2 
f 101/234/3 8/235/3 9/236/3 
f 102/237/3 9/236/3 10/238/3 
f 11/239/4 103/240/4 12/241/4 
f 94/242/3 1/243/3 3/244/3 
f 93/245/5 2/246/5 7/247/5 
f 96/248/5 5/249/5 38/250/5 
f 98/251/5 7/247/5 5/249/5 
f 103/252/3 3/244/3 12/253/3 
f 95/254/5 11/255/5 2/246/5 
f 1/256/4 102/257/4 10/258/4 
f 121/259/3 29/260/3 30/261/3 
f 123/262/3 31/263/3 32/264/3 
f 124/265/3 32/264/3 29/260/3 
f 125/266/3 33/267/3 34/268/3 
f 127/269/3 35/270/3 36/271/3 
f 128/272/3 36/271/3 33/267/3 
f 105/273/5 14/274/5 19/275/5 
f 108/276/5 17/277/5 37/278/5 
f 110/279/5 19/275/5 17/277/5 
f 112/280/5 21/281/5 28/282/5 
f 118/246/5 27/283/5 92/284/5 
f 117/285/5 28/282/5 24/286/5 
f 27/287/4 117/288/4 24/289/4 
f 129/290/3 34/268/3 31/263/3 
f 114/291/5 37/278/5 21/281/5 
f 130/292/3 30/261/3 8/235/3 
f 107/293/5 38/250/5 14/274/5 
f 132/294/3 39/234/3 41/237/3 
f 40/252/4 132/295/4 41/242/4 
f 135/296/3 42/259/3 44/292/3 
f 137/297/3 44/292/3 39/234/3 
f 139/239/3 46/262/3 48/265/3 
f 142/298/3 49/266/3 51/290/3 
f 144/241/3 51/290/3 46/262/3 
f 151/249/5 60/299/5 63/300/5 
f 153/274/5 62/301/5 78/302/5 
f 154/250/5 63/300/5 62/301/5 
f 162/277/5 71/303/5 75/304/5 
f 74/305/4 162/306/4 75/307/4 
f 164/308/5 73/309/5 91/310/5 
f 167/307/6 73/311/6 165/312/6 
f 90/313/4 164/314/4 91/288/4 
f 167/315/5 74/316/5 187/317/5 
f 171/318/3 48/265/3 42/259/3 
f 163/275/5 78/302/5 71/303/5 
f 176/253/3 82/297/3 83/294/3 
f 81/295/4 176/258/4 83/242/4 
f 180/310/5 88/319/5 188/320/5 
f 184/321/6 88/322/6 181/323/6 
f 183/324/3 81/272/3 49/266/3 
f 184/325/5 90/326/5 189/327/5 
f 186/328/3 40/329/3 35/270/3 
f 152/247/5 92/284/5 60/299/5 
f 1/1/1 7/7/1 2/2/1 
f 4/4/1 38/48/1 5/5/1 
f 6/6/1 5/5/1 7/7/1 
f 8/8/1 4/49/1 6/9/1 
f 9/10/1 6/9/1 1/11/1 
f 3/3/1 2/2/1 11/13/1 
f 13/15/1 19/21/1 14/16/1 
f 16/18/1 37/46/1 17/19/1 
f 18/20/1 17/19/1 19/21/1 
f 20/22/1 28/32/1 21/23/1 
f 23/25/1 26/116/1 24/26/1 
f 26/28/1 92/117/1 27/29/1 
f 25/31/1 24/30/1 28/32/1 
f 29/33/1 13/39/1 15/34/1 
f 31/36/1 16/47/1 18/37/1 
f 32/38/1 18/37/1 13/39/1 
f 33/40/1 20/45/1 22/41/1 
f 35/43/1 23/25/1 25/27/1 
f 36/44/1 25/27/1 20/45/1 
f 22/24/1 21/23/1 37/46/1 
f 34/42/1 22/41/1 16/47/1 
f 15/17/1 14/16/1 38/48/1 
f 30/35/1 15/34/1 4/49/1 
f 39/50/1 45/56/1 40/51/1 
f 42/53/1 76/95/1 43/54/1 
f 44/55/1 43/54/1 45/56/1 
f 46/57/1 52/63/1 47/58/1 
f 49/60/1 77/96/1 50/61/1 
f 51/62/1 50/61/1 52/63/1 
f 53/64/1 59/76/1 54/65/1 
f 56/67/1 61/97/1 57/68/1 
f 59/70/1 63/77/1 60/71/1 
f 61/73/1 78/98/1 62/74/1 
f 58/69/1 57/68/1 59/76/1 
f 57/75/1 62/74/1 63/77/1 
f 64/78/1 70/90/1 65/79/1 
f 67/81/1 72/111/1 68/82/1 
f 70/84/1 75/94/1 71/85/1 
f 72/87/1 91/115/1 73/88/1 
f 69/83/1 68/82/1 70/90/1 
f 73/91/1 187/330/1 74/92/1 
f 68/89/1 73/88/1 75/94/1 
f 45/56/1 53/64/1 55/66/1 
f 76/95/1 56/67/1 58/69/1 
f 43/54/1 58/69/1 53/64/1 
f 52/63/1 64/78/1 66/80/1 
f 77/96/1 67/81/1 69/83/1 
f 50/61/1 69/83/1 64/78/1 
f 48/59/1 47/58/1 76/95/1 
f 66/80/1 65/79/1 61/97/1 
f 65/86/1 71/85/1 78/98/1 
f 47/58/1 66/80/1 56/67/1 
f 79/99/1 89/110/1 80/100/1 
f 82/102/1 79/99/1 81/101/1 
f 84/104/1 87/331/1 85/105/1 
f 87/107/1 188/332/1 88/108/1 
f 89/110/1 84/104/1 86/106/1 
f 81/101/1 80/100/1 77/96/1 
f 86/106/1 85/105/1 72/111/1 
f 88/112/1 189/333/1 90/113/1 
f 85/109/1 88/108/1 91/115/1 
f 80/100/1 86/106/1 67/81/1 
f 55/66/1 54/65/1 26/116/1 
f 54/72/1 60/71/1 92/117/1 
f 40/51/1 55/66/1 23/25/1 
f 93/118/2 99/124/2 94/119/2 
f 96/121/2 100/164/2 97/122/2 
f 98/123/2 97/122/2 99/124/2 
f 100/125/2 130/165/2 101/126/2 
f 97/127/2 101/126/2 102/128/2 
f 95/120/2 94/119/2 103/130/2 
f 105/132/2 111/138/2 106/133/2 
f 108/135/2 122/162/2 109/136/2 
f 110/137/2 109/136/2 111/138/2 
f 112/139/2 120/147/2 113/140/2 
f 115/142/2 126/334/2 116/143/2 
f 118/145/2 115/142/2 117/144/2 
f 117/144/2 116/143/2 120/147/2 
f 111/148/2 124/154/2 121/149/2 
f 122/151/2 129/163/2 123/152/2 
f 109/153/2 123/152/2 124/154/2 
f 120/155/2 128/161/2 125/156/2 
f 126/158/2 186/233/2 127/159/2 
f 116/160/2 127/159/2 128/161/2 
f 114/141/2 113/140/2 122/162/2 
f 113/157/2 125/156/2 129/163/2 
f 107/134/2 106/133/2 100/164/2 
f 106/150/2 121/149/2 130/165/2 
f 131/166/2 137/172/2 132/167/2 
f 134/169/2 171/213/2 135/170/2 
f 136/171/2 135/170/2 137/172/2 
f 138/173/2 144/179/2 139/174/2 
f 141/176/2 183/227/2 142/177/2 
f 143/178/2 142/177/2 144/179/2 
f 145/180/2 155/192/2 146/181/2 
f 148/183/2 169/211/2 149/184/2 
f 151/186/2 145/193/2 147/187/2 
f 153/189/2 148/214/2 150/190/2 
f 150/185/2 149/184/2 155/192/2 
f 154/191/2 150/190/2 145/193/2 
f 156/194/2 166/206/2 157/195/2 
f 159/197/2 170/212/2 160/198/2 
f 162/200/2 156/210/2 158/201/2 
f 164/203/2 159/231/2 161/204/2 
f 161/199/2 160/198/2 166/206/2 
f 167/207/2 165/335/2 162/208/2 
f 165/205/2 161/204/2 156/210/2 
f 155/192/2 131/166/2 133/168/2 
f 169/211/2 134/169/2 136/171/2 
f 149/184/2 136/171/2 131/166/2 
f 166/206/2 138/173/2 140/175/2 
f 170/212/2 141/176/2 143/178/2 
f 160/198/2 143/178/2 138/173/2 
f 140/175/2 139/174/2 171/213/2 
f 158/196/2 157/195/2 169/211/2 
f 163/202/2 158/201/2 148/214/2 
f 157/195/2 140/175/2 134/169/2 
f 172/215/2 175/218/2 173/216/2 
f 175/218/2 190/336/2 176/219/2 
f 177/220/2 182/226/2 178/221/2 
f 180/223/2 177/337/2 179/224/2 
f 182/226/2 172/215/2 174/217/2 
f 174/217/2 173/216/2 183/227/2 
f 179/222/2 178/221/2 170/212/2 
f 184/228/2 181/338/2 164/229/2 
f 181/225/2 179/224/2 159/231/2 
f 178/221/2 174/217/2 141/176/2 
f 147/182/2 146/181/2 126/158/2 
f 152/188/2 147/187/2 115/142/2 
f 146/181/2 133/168/2 186/233/2 
f 101/234/3 130/292/3 8/235/3 
f 102/237/3 101/234/3 9/236/3 
f 11/239/4 104/339/4 103/240/4 
f 94/242/3 99/258/3 1/243/3 
f 93/245/5 95/254/5 2/246/5 
f 96/248/5 98/251/5 5/249/5 
f 98/251/5 93/245/5 7/247/5 
f 103/252/3 94/242/3 3/244/3 
f 95/254/5 104/340/5 11/255/5 
f 1/256/4 99/341/4 102/257/4 
f 121/259/3 124/265/3 29/260/3 
f 123/262/3 129/290/3 31/263/3 
f 124/265/3 123/262/3 32/264/3 
f 125/266/3 128/272/3 33/267/3 
f 127/269/3 186/328/3 35/270/3 
f 128/272/3 127/269/3 36/271/3 
f 105/273/5 107/293/5 14/274/5 
f 108/276/5 110/279/5 17/277/5 
f 110/279/5 105/273/5 19/275/5 
f 112/280/5 114/291/5 21/281/5 
f 118/246/5 119/255/5 27/283/5 
f 117/285/5 112/280/5 28/282/5 
f 27/287/4 119/313/4 117/288/4 
f 129/290/3 125/266/3 34/268/3 
f 114/291/5 108/276/5 37/278/5 
f 130/292/3 121/259/3 30/261/3 
f 107/293/5 96/248/5 38/250/5 
f 132/294/3 137/297/3 39/234/3 
f 40/252/4 133/342/4 132/295/4 
f 135/296/3 171/318/3 42/259/3 
f 137/297/3 135/296/3 44/292/3 
f 139/239/3 144/241/3 46/262/3 
f 142/298/3 183/324/3 49/266/3 
f 144/241/3 142/298/3 51/290/3 
f 151/249/5 152/247/5 60/299/5 
f 153/274/5 154/250/5 62/301/5 
f 154/250/5 151/249/5 63/300/5 
f 162/277/5 163/275/5 71/303/5 
f 74/305/4 168/343/4 162/306/4 
f 164/308/5 165/344/5 73/309/5 
f 167/307/6 187/306/6 73/311/6 
f 90/313/4 185/345/4 164/314/4 
f 167/315/5 168/327/5 74/316/5 
f 171/318/3 139/239/3 48/265/3 
f 163/275/5 153/274/5 78/302/5 
f 176/253/3 190/244/3 82/297/3 
f 81/295/4 173/256/4 176/258/4 
f 180/310/5 181/309/5 88/319/5 
f 184/321/6 189/346/6 88/322/6 
f 183/324/3 173/347/3 81/272/3 
f 184/325/5 185/348/5 90/326/5 
f 186/328/3 133/349/3 40/329/3 
f 152/247/5 118/246/5 92/284/5 
# 0 polygons - 366 triangles

