# 3ds Max Wavefront OBJ Exporter v0.99 - (c)2007 guruware
# File Created: 12.05.2022 17:19:15

mtllib piernaLTirano1.mtl

#
# object Tyrannosaurus_2
#

v  1.7652 0.1879 -0.7844
v  1.2175 0.1879 -0.2367
v  1.2175 0.1879 -0.7844
v  0.6697 0.1879 -0.2367
v  0.6697 0.1879 -0.7844
v  1.2175 0.1879 0.3111
v  0.6697 0.1879 0.8588
v  0.6697 0.1879 0.3111
v  1.7652 0.1879 -0.2367
v  1.2175 0.1879 0.8588
v  0.6697 0.1879 1.4066
v  1.2175 1.8312 -1.3322
v  0.6697 1.8312 -0.7844
v  0.6697 1.8312 -1.3322
v  0.6697 2.3789 -1.3322
v  0.6697 2.9267 -1.3322
v  1.2175 2.3789 -1.3322
v  0.6697 0.7356 -0.2367
v  0.6697 1.2834 -0.7844
v  0.6697 0.7356 -0.7844
v  0.6697 1.8312 -0.2367
v  0.6697 2.3789 -0.7844
v  1.7652 1.2834 -0.2367
v  1.7652 0.7356 -0.7844
v  1.7652 1.2834 -0.7844
v  1.2175 1.2834 -0.7844
v  1.2175 0.7356 -0.7844
v  1.2175 0.7356 -0.2367
v  1.7652 0.7356 -0.2367
v  1.7652 2.3789 -0.2367
v  1.7652 1.8312 -0.7844
v  1.7652 2.3789 -0.7844
v  1.2175 2.3789 -0.7844
v  1.2175 1.8312 -0.7844
v  1.2175 1.8312 -0.2367
v  1.7652 1.8312 -0.2367
v  1.2175 1.2834 -0.2367
v  1.2175 0.7356 0.8588
v  0.6697 0.7356 0.3111
v  0.6697 0.7356 0.8588
v  1.2175 2.3789 -0.2367
v  0.6697 1.2834 -0.2367
v  1.7652 0.7356 0.3111
v  1.2175 0.7356 0.3111
v  1.7652 0.1879 0.3111
v  1.2175 0.7356 1.4066
v  1.2175 0.1879 1.4066
v  0.6697 0.7356 1.4066
v  0.6697 2.9267 -0.2367
v  0.6697 3.4744 -0.7844
v  0.6697 2.9267 -0.7844
v  0.6697 4.0222 -0.2367
v  0.6697 4.5699 -0.7844
v  0.6697 4.0222 -0.7844
v  0.6697 4.0222 0.8588
v  0.6697 4.5699 0.3111
v  0.6697 4.0222 0.3111
v  1.7652 3.4744 -0.2367
v  1.7652 2.9267 -0.7844
v  1.7652 3.4744 -0.7844
v  1.2175 3.4744 -0.7844
v  1.2175 2.9267 -0.7844
v  1.2175 2.9267 -0.2367
v  1.7652 2.9267 -0.2367
v  1.7652 4.5699 -0.2367
v  1.7652 4.0222 -0.7844
v  1.7652 4.5699 -0.7844
v  1.2175 4.5699 -0.7844
v  1.2175 4.0222 -0.7844
v  1.7652 4.5699 0.8588
v  1.7652 4.0222 0.3111
v  1.7652 4.5699 0.3111
v  1.2175 4.0222 0.8588
v  1.2175 4.0222 0.3111
v  1.7652 4.0222 0.8588
v  1.2175 3.4744 -0.2367
v  1.2175 4.5699 0.8588
v  0.6697 3.4744 -0.2367
v  1.7652 4.0222 -0.2367
v  1.2175 3.4744 0.3111
v  1.7652 3.4744 0.3111
v  0.6697 4.5699 -0.2367
v  0.6697 3.4744 0.3111
v  0.6697 5.1177 -0.2367
v  0.6697 5.6654 -0.7844
v  0.6697 5.1177 -0.7844
v  0.6697 5.1177 0.8588
v  0.6697 5.6654 0.3111
v  0.6697 5.1177 0.3111
v  0.6697 6.2132 0.8588
v  0.6697 6.7609 0.3111
v  0.6697 6.2132 0.3111
v  1.7652 5.6654 -0.2367
v  1.7652 5.1177 -0.7844
v  1.7652 5.6654 -0.7844
v  1.2175 5.6654 -0.7844
v  1.2175 5.6654 -0.2367
v  1.2175 5.1177 -0.7844
v  1.7652 5.6654 0.8588
v  1.7652 5.1177 0.3111
v  1.7652 5.6654 0.3111
v  1.2175 6.7609 -0.2367
v  1.7652 6.2132 -0.2367
v  1.2175 6.2132 -0.2367
v  1.7652 6.7609 0.8588
v  1.7652 6.2132 0.3111
v  1.7652 6.7609 0.3111
v  0.6697 5.6654 -0.2367
v  0.6697 6.7609 -0.2367
v  0.6697 6.2132 -0.2367
v  0.6697 5.6654 0.8588
v  1.7652 6.2132 0.8588
v  1.7652 5.1177 -0.2367
v  1.7652 6.7609 -0.2367
v  0.6697 6.2132 1.9543
v  0.6697 6.7609 1.4066
v  0.6697 6.2132 1.4066
v  1.7652 5.6654 1.4066
v  1.2175 5.6654 1.9543
v  1.2175 5.6654 1.4066
v  1.2175 5.1177 1.4066
v  1.7652 5.1177 1.4066
v  1.7652 6.7609 1.9543
v  1.7652 6.2132 1.4066
v  1.7652 6.7609 1.4066
v  1.2175 6.2132 1.9543
v  1.7652 6.2132 1.9543
v  0.6697 5.6654 1.9543
v  0.6697 5.6654 1.4066
v  0.6697 5.1177 1.4066
v  1.2175 6.7609 1.9543
v  1.7652 5.6654 1.9543
v  0.6697 4.5699 0.8588
v  1.7652 5.1177 0.8588
v  1.2175 4.5699 1.4066
v  1.7652 4.5699 1.4066
v  0.6697 4.5699 1.4066
v  0.6697 6.7609 0.8588
v  0.6697 2.3789 -0.2367
v  1.2175 7.8564 -0.2367
v  1.7652 7.3087 -0.2367
v  1.2175 7.3087 -0.2367
v  1.7652 7.8564 0.8588
v  1.7652 7.3087 0.3111
v  1.7652 7.8564 0.3111
v  1.2175 8.9519 -0.2367
v  1.7652 8.4042 -0.2367
v  1.2175 8.4042 -0.2367
v  1.7652 8.9519 0.8588
v  1.7652 8.4042 0.3111
v  1.7652 8.9519 0.3111
v  1.7652 7.8564 -0.2367
v  1.7652 8.4042 0.8588
v  1.7652 8.9519 -0.2367
v  1.7652 7.8564 1.9543
v  1.7652 7.3087 1.4066
v  1.7652 7.8564 1.4066
v  1.2175 7.3087 1.9543
v  1.7652 7.3087 1.9543
v  1.7652 8.9519 1.9543
v  1.7652 8.4042 1.4066
v  1.7652 8.9519 1.4066
v  1.7652 8.9519 2.5021
v  1.2175 8.4042 2.5021
v  1.7652 8.4042 2.5021
v  1.7652 8.4042 1.9543
v  1.2175 7.8564 2.5021
v  1.7652 7.8564 2.5021
v  1.2175 7.8564 1.9543
v  1.2175 8.9519 1.9543
v  1.2175 8.9519 2.5021
v  1.7652 9.4997 0.8588
v  1.2175 9.4997 0.3111
v  1.2175 9.4997 0.8588
v  1.7652 9.4997 0.3111
v  1.2175 9.4997 -0.2367
v  1.7652 10.0474 1.9543
v  1.7652 9.4997 1.4066
v  1.7652 10.0474 1.4066
v  1.2175 10.0474 1.4066
v  1.2175 10.0474 1.9543
v  1.2175 9.4997 1.4066
v  1.2175 9.4997 1.9543
v  1.7652 9.4997 1.9543
v  1.7652 9.4997 -0.2367
v  1.7652 7.3087 0.8588
v  0.6697 6.7609 1.9543
v  1.2175 2.9267 -1.3322
v  0.6697 7.3087 1.9543
# 189 vertices

vn 0.0000 -1.0000 0.0000
vn 0.0000 0.0000 -1.0000
vn -1.0000 -0.0000 0.0000
vn 1.0000 -0.0000 0.0000
vn 0.0000 -0.0000 1.0000
vn 0.0000 1.0000 0.0000
# 6 vertex normals

vt 0.4895 0.7945 0.0000
vt 0.4811 0.7950 0.0000
vt 0.4850 0.7906 0.0000
vt 0.4766 0.7911 0.0000
vt 0.4806 0.7866 0.0000
vt 0.4772 0.7995 0.0000
vt 0.4688 0.8000 0.0000
vt 0.4727 0.7956 0.0000
vt 0.4856 0.7990 0.0000
vt 0.4732 0.8040 0.0000
vt 0.4648 0.8045 0.0000
vt 0.4985 0.8024 0.0000
vt 0.4979 0.7940 0.0000
vt 0.5024 0.7979 0.0000
vt 0.5250 0.7543 0.0000
vt 0.5255 0.7627 0.0000
vt 0.5210 0.7587 0.0000
vt 0.5289 0.7498 0.0000
vt 0.5294 0.7582 0.0000
vt 0.5008 0.7178 0.0000
vt 0.4924 0.7175 0.0000
vt 0.4967 0.7135 0.0000
vt 0.4921 0.7259 0.0000
vt 0.4837 0.7256 0.0000
vt 0.4880 0.7216 0.0000
vt 0.4830 0.6384 0.0000
vt 0.4819 0.6270 0.0000
vt 0.4882 0.6322 0.0000
vt 0.4919 0.7648 0.0000
vt 0.4924 0.7732 0.0000
vt 0.4879 0.7693 0.0000
vt 0.5265 0.5506 0.0000
vt 0.5274 0.5660 0.0000
vt 0.5193 0.5588 0.0000
vt 0.5465 0.3072 0.0000
vt 0.5445 0.2865 0.0000
vt 0.5558 0.2959 0.0000
vt 0.4997 0.7559 0.0000
vt 0.5003 0.7643 0.0000
vt 0.4958 0.7603 0.0000
vt 0.4929 0.7816 0.0000
vt 0.4885 0.7777 0.0000
vt 0.4874 0.7609 0.0000
vt 0.4835 0.7653 0.0000
vt 0.4890 0.7861 0.0000
vt 0.4420 0.7720 0.0000
vt 0.4504 0.7715 0.0000
vt 0.4465 0.7760 0.0000
vt 0.4969 0.7772 0.0000
vt 0.4974 0.7856 0.0000
vt 0.4964 0.7219 0.0000
vt 0.5351 0.2979 0.0000
vt 0.5331 0.2772 0.0000
vt 0.4963 0.7687 0.0000
vt 0.4845 0.7822 0.0000
vt 0.4415 0.7636 0.0000
vt 0.4499 0.7631 0.0000
vt 0.4460 0.7676 0.0000
vt 0.4544 0.7670 0.0000
vt 0.4913 0.7564 0.0000
vt 0.4935 0.7900 0.0000
vt 0.5052 0.7138 0.0000
vt 0.5011 0.7094 0.0000
vt 0.4768 0.6333 0.0000
vt 0.4757 0.6219 0.0000
vt 0.4840 0.7737 0.0000
vt 0.5133 0.7225 0.0000
vt 0.5049 0.7222 0.0000
vt 0.5092 0.7181 0.0000
vt 0.6227 0.4907 0.0000
vt 0.6218 0.4753 0.0000
vt 0.6299 0.4825 0.0000
vt 0.5468 0.7447 0.0000
vt 0.4342 0.7810 0.0000
vt 0.5428 0.7491 0.0000
vt 0.5031 0.2906 0.0000
vt 0.5011 0.2699 0.0000
vt 0.5124 0.2792 0.0000
vt 0.4795 0.7698 0.0000
vt 0.4381 0.7765 0.0000
vt 0.4386 0.7849 0.0000
vt 0.4426 0.7804 0.0000
vt 0.5173 0.7269 0.0000
vt 0.5089 0.7266 0.0000
vt 0.6156 0.4988 0.0000
vt 0.6146 0.4835 0.0000
vt 0.4833 0.7341 0.0000
vt 0.4749 0.7338 0.0000
vt 0.4793 0.7297 0.0000
vt 0.4746 0.7422 0.0000
vt 0.4662 0.7419 0.0000
vt 0.4706 0.7378 0.0000
vt 0.4827 0.7509 0.0000
vt 0.4743 0.7506 0.0000
vt 0.4787 0.7465 0.0000
vt 0.5692 0.3259 0.0000
vt 0.5672 0.3052 0.0000
vt 0.5785 0.3145 0.0000
vt 0.5076 0.7469 0.0000
vt 0.5082 0.7553 0.0000
vt 0.5037 0.7514 0.0000
vt 0.5008 0.7727 0.0000
vt 0.5204 0.6691 0.0000
vt 0.5193 0.6578 0.0000
vt 0.5255 0.6629 0.0000
vt 0.5155 0.7380 0.0000
vt 0.5160 0.7464 0.0000
vt 0.5116 0.7424 0.0000
vt 0.5733 0.3672 0.0000
vt 0.5712 0.3466 0.0000
vt 0.5826 0.3559 0.0000
vt 0.4782 0.8163 0.0000
vt 0.4777 0.8079 0.0000
vt 0.4822 0.8119 0.0000
vt 0.4940 0.7984 0.0000
vt 0.5031 0.7430 0.0000
vt 0.4992 0.7474 0.0000
vt 0.5047 0.7682 0.0000
vt 0.5053 0.7766 0.0000
vt 0.5110 0.7340 0.0000
vt 0.5071 0.7385 0.0000
vt 0.4816 0.8034 0.0000
vt 0.4861 0.8074 0.0000
vt 0.4900 0.8029 0.0000
vt 0.4790 0.7381 0.0000
vt 0.5142 0.6640 0.0000
vt 0.5131 0.6526 0.0000
vt 0.5121 0.7509 0.0000
vt 0.5097 0.7806 0.0000
vt 0.5013 0.7811 0.0000
vt 0.4703 0.7462 0.0000
vt 0.5300 0.7666 0.0000
vt 0.5339 0.7621 0.0000
vt 0.5153 0.6753 0.0000
vt 0.4830 0.7425 0.0000
vt 0.5806 0.3352 0.0000
vt 0.5334 0.7537 0.0000
vt 0.5379 0.7577 0.0000
vt 0.5058 0.7850 0.0000
vt 0.4659 0.7503 0.0000
vt 0.4575 0.7500 0.0000
vt 0.4618 0.7459 0.0000
vt 0.4740 0.7590 0.0000
vt 0.4656 0.7587 0.0000
vt 0.4699 0.7547 0.0000
vt 0.4653 0.7671 0.0000
vt 0.4568 0.7668 0.0000
vt 0.4612 0.7628 0.0000
vt 0.5329 0.6793 0.0000
vt 0.5318 0.6680 0.0000
vt 0.5380 0.6731 0.0000
vt 0.5132 0.7677 0.0000
vt 0.5137 0.7761 0.0000
vt 0.5092 0.7721 0.0000
vt 0.5234 0.7290 0.0000
vt 0.5239 0.7374 0.0000
vt 0.5194 0.7335 0.0000
vt 0.5226 0.6918 0.0000
vt 0.5215 0.6804 0.0000
vt 0.5278 0.6856 0.0000
vt 0.5126 0.7593 0.0000
vt 0.5087 0.7637 0.0000
vt 0.5351 0.7020 0.0000
vt 0.5340 0.6907 0.0000
vt 0.5402 0.6958 0.0000
vt 0.5189 0.7251 0.0000
vt 0.5150 0.7296 0.0000
vt 0.5042 0.7598 0.0000
vt 0.4696 0.7631 0.0000
vt 0.5289 0.6969 0.0000
vt 0.4615 0.7543 0.0000
vt 0.4528 0.7625 0.0000
vt 0.4572 0.7584 0.0000
vt 0.5266 0.6742 0.0000
vt 0.5391 0.6845 0.0000
vt 0.5453 0.6896 0.0000
vt 0.4734 0.7759 0.0000
vt 0.4650 0.7756 0.0000
vt 0.4693 0.7715 0.0000
vt 0.4638 0.7877 0.0000
vt 0.4643 0.7961 0.0000
vt 0.4598 0.7922 0.0000
vt 0.6000 0.4273 0.0000
vt 0.5980 0.4066 0.0000
vt 0.6094 0.4159 0.0000
vt 0.4716 0.7787 0.0000
vt 0.4722 0.7872 0.0000
vt 0.4677 0.7832 0.0000
vt 0.5019 0.7895 0.0000
vt 0.4682 0.7916 0.0000
vt 0.4761 0.7827 0.0000
vt 0.4777 0.7718 0.0000
vt 0.4737 0.7674 0.0000
vt 0.5887 0.4179 0.0000
vt 0.5866 0.3973 0.0000
vt 0.5200 0.7419 0.0000
vt 0.4784 0.7550 0.0000
vt 0.5164 0.6867 0.0000
vt 0.4603 0.8006 0.0000
vt 0.4559 0.7966 0.0000
vt 0.5373 0.7493 0.0000
vt 0.5418 0.7532 0.0000
vt 0.5413 0.7448 0.0000
vt 0.5457 0.7487 0.0000
vt 0.4781 0.7634 0.0000
vt 0.4609 0.7712 0.0000
vt 0.5846 0.3766 0.0000
vt 0.5960 0.3859 0.0000
vt 0.5300 0.7083 0.0000
vt 0.5237 0.7031 0.0000
vt 0.4824 0.7593 0.0000
vt 0.5753 0.3879 0.0000
vt 0.4877 0.7300 0.0000
vt 0.5579 0.3165 0.0000
vt 0.5205 0.7503 0.0000
vt 0.5166 0.7548 0.0000
vt 0.5476 0.7123 0.0000
vt 0.5464 0.7009 0.0000
vt 0.5527 0.7060 0.0000
vt 0.5284 0.7414 0.0000
vt 0.5244 0.7459 0.0000
vt 0.5600 0.7225 0.0000
vt 0.5589 0.7112 0.0000
vt 0.5651 0.7163 0.0000
vt 0.5538 0.7174 0.0000
vt 0.5516 0.6947 0.0000
vt 0.5578 0.6998 0.0000
vt 0.5640 0.7049 0.0000
vt 0.5702 0.7100 0.0000
vt 0.6227 0.4459 0.0000
vt 0.6207 0.4252 0.0000
vt 0.6321 0.4346 0.0000
vt 0.4800 0.7782 0.0000
vt 0.4756 0.7743 0.0000
vt 0.5498 0.7350 0.0000
vt 0.5487 0.7236 0.0000
vt 0.5549 0.7287 0.0000
vt 0.4549 0.7754 0.0000
vt 0.5435 0.7298 0.0000
vt 0.5424 0.7185 0.0000
vt 0.4510 0.7799 0.0000
vt 0.4470 0.7844 0.0000
vt 0.6361 0.4759 0.0000
vt 0.6341 0.4553 0.0000
vt 0.6454 0.4646 0.0000
vt 0.4906 0.8113 0.0000
vt 0.6248 0.4666 0.0000
vt 0.4554 0.7838 0.0000
vt 0.4639 0.7833 0.0000
vt 0.4599 0.7878 0.0000
vt 0.4594 0.7794 0.0000
vt 0.4678 0.7788 0.0000
vt 0.6682 0.4833 0.0000
vt 0.6661 0.4626 0.0000
vt 0.6775 0.4719 0.0000
vt 0.4945 0.8069 0.0000
vt 0.5103 0.7890 0.0000
vt 0.5260 0.7711 0.0000
vt 0.5216 0.7671 0.0000
vt 0.5323 0.7369 0.0000
vt 0.5329 0.7453 0.0000
vt 0.5662 0.7276 0.0000
vt 0.5714 0.7214 0.0000
vt 0.5763 0.7153 0.0000
vt 0.6568 0.4739 0.0000
vt 0.6548 0.4532 0.0000
vt 0.5221 0.7756 0.0000
vt 0.5176 0.7716 0.0000
vt 0.5413 0.7071 0.0000
vt 0.4515 0.7883 0.0000
vt 0.4560 0.7923 0.0000
vt 0.5611 0.7338 0.0000
vt 0.5171 0.7632 0.0000
vt 0.6114 0.4366 0.0000
vt 0.5362 0.7134 0.0000
vt 0.4796 0.7213 0.0000
vt 0.4840 0.7172 0.0000
vt 0.5182 0.7800 0.0000
vt 0.5142 0.7845 0.0000
vt 0.4752 0.7253 0.0000
vt 0.4693 0.8084 0.0000
vt 0.5346 0.5578 0.0000
vt 0.5238 0.2885 0.0000
vt 0.4454 0.7591 0.0000
vt 0.4706 0.6282 0.0000
vt 0.4918 0.2812 0.0000
vt 0.5130 0.7309 0.0000
vt 0.6074 0.4916 0.0000
vt 0.5619 0.3579 0.0000
vt 0.4738 0.8124 0.0000
vt 0.5080 0.6589 0.0000
vt 0.5091 0.6702 0.0000
vt 0.5599 0.3372 0.0000
vt 0.5279 0.7330 0.0000
vt 0.4690 0.7799 0.0000
vt 0.5773 0.4086 0.0000
vt 0.5102 0.6816 0.0000
vt 0.5175 0.6980 0.0000
vt 0.5639 0.3786 0.0000
vt 0.4589 0.7710 0.0000
vt 0.5373 0.7247 0.0000
vt 0.4431 0.7888 0.0000
vt 0.6134 0.4573 0.0000
vt 0.4633 0.7749 0.0000
vt 0.5368 0.7409 0.0000
# 305 texture coords

o Tyrannosaurus_2
g Tyrannosaurus_2
usemtl Material_003
s off
f 1/1/1 2/2/1 3/3/1 
f 3/3/1 4/4/1 5/5/1 
f 6/6/1 7/7/1 8/8/1 
f 9/9/1 6/6/1 2/2/1 
f 2/2/1 8/8/1 4/4/1 
f 10/10/1 11/11/1 7/7/1 
f 12/12/1 13/13/1 14/14/1 
f 15/15/2 12/16/2 14/17/2 
f 16/18/2 17/19/2 15/15/2 
f 18/20/3 19/21/3 20/22/3 
f 21/23/3 22/24/3 13/25/3 
f 23/26/4 24/27/4 25/28/4 
f 26/29/2 24/30/2 27/31/2 
f 23/32/5 28/33/5 29/34/5 
f 30/35/4 31/36/4 32/37/4 
f 33/38/2 31/39/2 34/40/2 
f 30/30/5 35/41/5 36/42/5 
f 19/43/2 27/31/2 20/44/2 
f 37/45/5 18/1/5 28/3/5 
f 38/46/6 39/47/6 40/48/6 
f 41/49/5 21/50/5 35/41/5 
f 42/51/3 13/25/3 19/21/3 
f 36/52/4 25/53/4 31/36/4 
f 34/40/2 25/54/2 26/29/2 
f 36/42/5 37/45/5 23/55/5 
f 43/56/6 28/57/6 44/58/6 
f 44/58/6 18/59/6 39/47/6 
f 13/60/2 26/29/2 19/43/2 
f 35/41/5 42/61/5 37/45/5 
f 4/62/3 20/22/3 5/63/3 
f 29/64/4 1/65/4 24/27/4 
f 27/31/2 1/42/2 3/66/2 
f 7/67/3 39/68/3 8/69/3 
f 38/70/4 6/71/4 44/72/4 
f 43/73/5 6/74/5 45/75/5 
f 8/69/3 18/20/3 4/62/3 
f 43/76/4 9/77/4 29/78/4 
f 20/44/2 3/66/2 5/79/2 
f 46/80/5 11/81/5 47/74/5 
f 46/80/6 40/48/6 48/82/6 
f 11/83/3 40/84/3 7/67/3 
f 46/85/4 10/86/4 38/70/4 
f 49/87/3 50/88/3 51/89/3 
f 52/90/3 53/91/3 54/92/3 
f 55/93/3 56/94/3 57/95/3 
f 58/96/4 59/97/4 60/98/4 
f 61/99/2 59/100/2 62/101/2 
f 58/39/5 63/102/5 64/54/5 
f 65/103/4 66/104/4 67/105/4 
f 68/106/2 66/107/2 69/108/2 
f 70/109/4 71/110/4 72/111/4 
f 71/112/1 73/113/1 74/114/1 
f 70/115/5 73/9/5 75/1/5 
f 50/116/2 62/101/2 51/117/2 
f 76/118/5 49/119/5 63/102/5 
f 53/120/2 69/108/2 54/121/2 
f 74/114/1 55/122/1 57/123/1 
f 77/124/5 55/122/5 73/9/5 
f 78/125/3 54/92/3 50/88/3 
f 79/126/4 60/127/4 66/104/4 
f 69/108/2 60/128/2 61/99/2 
f 71/129/5 80/130/5 81/119/5 
f 57/95/3 82/131/3 52/90/3 
f 58/132/1 80/19/1 76/133/1 
f 72/134/4 79/126/4 65/103/4 
f 83/135/3 52/90/3 78/125/3 
f 71/110/4 58/96/4 79/136/4 
f 76/133/1 83/137/1 78/138/1 
f 54/121/2 61/99/2 50/116/2 
f 74/139/5 83/50/5 80/130/5 
f 84/140/3 85/141/3 86/142/3 
f 87/143/3 88/144/3 89/145/3 
f 90/146/3 91/147/3 92/148/3 
f 93/149/4 94/150/4 95/151/4 
f 93/152/6 96/153/6 97/154/6 
f 96/155/2 94/156/2 98/157/2 
f 99/158/4 100/159/4 101/160/4 
f 102/161/2 103/152/2 104/162/2 
f 105/163/4 106/164/4 107/165/4 
f 97/154/6 85/129/6 108/119/6 
f 85/166/2 98/157/2 86/167/2 
f 109/100/2 104/162/2 110/168/2 
f 104/162/2 93/154/2 97/118/2 
f 111/169/3 92/148/3 88/144/3 
f 112/170/4 101/160/4 106/164/4 
f 89/145/3 108/171/3 84/140/3 
f 92/148/3 109/172/3 110/173/3 
f 101/160/4 113/174/4 93/149/4 
f 107/165/4 103/175/4 114/176/4 
f 88/144/3 110/173/3 108/171/3 
f 106/164/4 93/149/4 103/175/4 
f 110/168/2 97/118/2 108/39/2 
f 115/177/3 116/178/3 117/179/3 
f 118/115/1 119/61/1 120/13/1 
f 118/180/5 121/181/5 122/182/5 
f 123/183/4 124/184/4 125/185/4 
f 123/186/5 126/187/5 127/188/5 
f 120/13/1 128/50/1 129/189/1 
f 120/190/5 130/7/5 121/181/5 
f 131/191/5 115/4/5 126/187/5 
f 128/192/3 117/179/3 129/193/3 
f 127/194/4 118/195/4 124/184/4 
f 127/188/5 119/190/5 132/180/5 
f 126/187/5 128/8/5 119/190/5 
f 82/131/3 86/142/3 53/91/3 
f 113/174/4 67/105/4 94/150/4 
f 98/157/2 67/196/2 68/106/2 
f 133/197/3 89/145/3 56/94/3 
f 134/198/4 72/134/4 100/159/4 
f 56/94/3 84/140/3 82/131/3 
f 100/159/4 65/103/4 113/174/4 
f 86/167/2 68/106/2 53/120/2 
f 122/182/5 135/199/5 136/200/5 
f 121/181/5 137/11/5 135/199/5 
f 70/138/1 135/201/1 77/202/1 
f 77/202/1 137/203/1 133/204/1 
f 130/205/3 111/169/3 87/143/3 
f 117/179/3 138/206/3 90/146/3 
f 118/195/4 134/207/4 99/208/4 
f 125/209/4 112/170/4 105/163/4 
f 129/193/3 90/146/3 111/169/3 
f 124/210/4 99/158/4 112/170/4 
f 137/211/3 87/143/3 133/197/3 
f 122/212/4 70/109/4 134/207/4 
f 139/213/3 51/89/3 22/24/3 
f 64/214/4 32/37/4 59/97/4 
f 62/101/2 32/168/2 33/38/2 
f 64/54/5 41/49/5 30/30/5 
f 63/102/5 139/130/5 41/49/5 
f 140/215/2 141/17/2 142/216/2 
f 143/217/4 144/218/4 145/219/4 
f 146/220/2 147/18/2 148/221/2 
f 149/222/4 150/223/4 151/224/4 
f 148/221/2 152/15/2 140/215/2 
f 153/225/4 145/219/4 150/223/4 
f 145/219/4 141/226/4 152/227/4 
f 151/224/4 147/228/4 154/229/4 
f 150/223/4 152/227/4 147/228/4 
f 155/230/4 156/231/4 157/232/4 
f 155/79/5 158/233/5 159/234/5 
f 160/235/4 161/236/4 162/237/4 
f 163/59/5 164/238/5 165/47/5 
f 166/239/4 157/240/4 161/236/4 
f 165/47/5 167/241/5 168/48/5 
f 155/242/1 167/81/1 169/82/1 
f 163/243/4 166/244/4 160/245/4 
f 163/124/6 170/246/6 171/123/6 
f 165/247/4 155/230/4 166/244/4 
f 172/248/6 173/249/6 174/250/6 
f 175/251/6 176/252/6 173/249/6 
f 177/253/4 178/254/4 179/255/4 
f 177/124/6 180/12/6 181/256/6 
f 180/129/2 178/257/2 182/139/2 
f 177/16/5 183/258/5 184/259/5 
f 176/260/2 154/261/2 146/220/2 
f 172/262/4 151/224/4 175/263/4 
f 175/263/4 154/229/4 185/264/4 
f 184/265/4 162/266/4 178/254/4 
f 184/259/5 170/267/5 160/268/5 
f 157/240/4 186/269/4 143/217/4 
f 162/237/4 153/225/4 149/222/4 
f 161/236/4 143/217/4 153/225/4 
f 178/270/6 174/250/6 182/271/6 
f 178/272/4 149/222/4 172/262/4 
f 142/216/2 114/273/2 102/161/2 
f 186/269/4 107/165/4 144/218/4 
f 144/218/4 114/176/4 141/226/4 
f 159/274/4 125/185/4 156/231/4 
f 159/234/5 131/191/5 123/186/5 
f 158/233/5 187/5/5 131/191/5 
f 156/275/4 105/163/4 186/269/4 
f 13/25/3 15/276/3 14/277/3 
f 33/273/4 12/16/4 17/259/4 
f 62/129/6 16/278/6 51/279/6 
f 22/24/3 16/280/3 15/276/3 
f 62/152/4 17/259/4 188/268/4 
f 1/1/1 9/9/1 2/2/1 
f 3/3/1 2/2/1 4/4/1 
f 6/6/1 10/10/1 7/7/1 
f 9/9/1 45/122/1 6/6/1 
f 2/2/1 6/6/1 8/8/1 
f 10/10/1 47/281/1 11/11/1 
f 12/12/1 34/115/1 13/13/1 
f 15/15/2 17/19/2 12/16/2 
f 16/18/2 188/137/2 17/19/2 
f 18/20/3 42/51/3 19/21/3 
f 21/23/3 139/213/3 22/24/3 
f 23/26/4 29/64/4 24/27/4 
f 26/29/2 25/54/2 24/30/2 
f 23/32/5 37/282/5 28/33/5 
f 30/35/4 36/52/4 31/36/4 
f 33/38/2 32/168/2 31/39/2 
f 30/30/5 41/49/5 35/41/5 
f 19/43/2 26/29/2 27/31/2 
f 37/45/5 42/61/5 18/1/5 
f 38/46/6 44/58/6 39/47/6 
f 41/49/5 139/130/5 21/50/5 
f 42/51/3 21/23/3 13/25/3 
f 36/52/4 23/283/4 25/53/4 
f 34/40/2 31/39/2 25/54/2 
f 36/42/5 35/41/5 37/45/5 
f 43/56/6 29/284/6 28/57/6 
f 44/58/6 28/57/6 18/59/6 
f 13/60/2 34/40/2 26/29/2 
f 35/41/5 21/50/5 42/61/5 
f 4/62/3 18/20/3 20/22/3 
f 29/64/4 9/285/4 1/65/4 
f 27/31/2 24/30/2 1/42/2 
f 7/67/3 40/84/3 39/68/3 
f 38/70/4 10/86/4 6/71/4 
f 43/73/5 44/80/5 6/74/5 
f 8/69/3 39/68/3 18/20/3 
f 43/76/4 45/286/4 9/77/4 
f 20/44/2 27/31/2 3/66/2 
f 46/80/5 48/82/5 11/81/5 
f 46/80/6 38/46/6 40/48/6 
f 11/83/3 48/287/3 40/84/3 
f 46/85/4 47/288/4 10/86/4 
f 49/87/3 78/125/3 50/88/3 
f 52/90/3 82/131/3 53/91/3 
f 55/93/3 133/197/3 56/94/3 
f 58/96/4 64/214/4 59/97/4 
f 61/99/2 60/128/2 59/100/2 
f 58/39/5 76/118/5 63/102/5 
f 65/103/4 79/126/4 66/104/4 
f 68/106/2 67/196/2 66/107/2 
f 70/109/4 75/289/4 71/110/4 
f 71/112/1 75/290/1 73/113/1 
f 70/115/5 77/124/5 73/9/5 
f 50/116/2 61/99/2 62/101/2 
f 76/118/5 78/154/5 49/119/5 
f 53/120/2 68/106/2 69/108/2 
f 74/114/1 73/113/1 55/122/1 
f 77/124/5 133/123/5 55/122/5 
f 78/125/3 52/90/3 54/92/3 
f 79/126/4 58/291/4 60/127/4 
f 69/108/2 66/107/2 60/128/2 
f 71/129/5 74/139/5 80/130/5 
f 57/95/3 56/94/3 82/131/3 
f 58/132/1 81/16/1 80/19/1 
f 72/134/4 71/292/4 79/126/4 
f 83/135/3 57/95/3 52/90/3 
f 71/110/4 81/293/4 58/96/4 
f 76/133/1 80/19/1 83/137/1 
f 54/121/2 69/108/2 61/99/2 
f 74/139/5 57/189/5 83/50/5 
f 84/140/3 108/171/3 85/141/3 
f 87/143/3 111/169/3 88/144/3 
f 90/146/3 138/206/3 91/147/3 
f 93/149/4 113/174/4 94/150/4 
f 93/152/6 95/268/6 96/153/6 
f 96/155/2 95/294/2 94/156/2 
f 99/158/4 134/198/4 100/159/4 
f 102/161/2 114/273/2 103/152/2 
f 105/163/4 112/170/4 106/164/4 
f 97/154/6 96/153/6 85/129/6 
f 85/166/2 96/155/2 98/157/2 
f 109/100/2 102/161/2 104/162/2 
f 104/162/2 103/152/2 93/154/2 
f 111/169/3 90/146/3 92/148/3 
f 112/170/4 99/158/4 101/160/4 
f 89/145/3 88/144/3 108/171/3 
f 92/148/3 91/147/3 109/172/3 
f 101/160/4 100/159/4 113/174/4 
f 107/165/4 106/164/4 103/175/4 
f 88/144/3 92/148/3 110/173/3 
f 106/164/4 101/160/4 93/149/4 
f 110/168/2 104/162/2 97/118/2 
f 115/177/3 187/295/3 116/178/3 
f 118/115/1 132/1/1 119/61/1 
f 118/180/5 120/190/5 121/181/5 
f 123/183/4 127/194/4 124/184/4 
f 123/186/5 131/191/5 126/187/5 
f 120/13/1 119/61/1 128/50/1 
f 120/190/5 129/8/5 130/7/5 
f 131/191/5 187/5/5 115/4/5 
f 128/192/3 115/177/3 117/179/3 
f 127/194/4 132/296/4 118/195/4 
f 127/188/5 126/187/5 119/190/5 
f 126/187/5 115/4/5 128/8/5 
f 82/131/3 84/140/3 86/142/3 
f 113/174/4 65/103/4 67/105/4 
f 98/157/2 94/156/2 67/196/2 
f 133/197/3 87/143/3 89/145/3 
f 134/198/4 70/297/4 72/134/4 
f 56/94/3 89/145/3 84/140/3 
f 100/159/4 72/134/4 65/103/4 
f 86/167/2 98/157/2 68/106/2 
f 122/182/5 121/181/5 135/199/5 
f 121/181/5 130/7/5 137/11/5 
f 70/138/1 136/137/1 135/201/1 
f 77/202/1 135/201/1 137/203/1 
f 130/205/3 129/193/3 111/169/3 
f 117/179/3 116/178/3 138/206/3 
f 118/195/4 122/212/4 134/207/4 
f 125/209/4 124/210/4 112/170/4 
f 129/193/3 117/179/3 90/146/3 
f 124/210/4 118/298/4 99/158/4 
f 137/211/3 130/205/3 87/143/3 
f 122/212/4 136/299/4 70/109/4 
f 139/213/3 49/87/3 51/89/3 
f 64/214/4 30/35/4 32/37/4 
f 62/101/2 59/100/2 32/168/2 
f 64/54/5 63/102/5 41/49/5 
f 63/102/5 49/119/5 139/130/5 
f 140/215/2 152/15/2 141/17/2 
f 143/217/4 186/269/4 144/218/4 
f 146/220/2 154/261/2 147/18/2 
f 149/222/4 153/225/4 150/223/4 
f 148/221/2 147/18/2 152/15/2 
f 153/225/4 143/217/4 145/219/4 
f 145/219/4 144/218/4 141/226/4 
f 151/224/4 150/223/4 147/228/4 
f 150/223/4 145/219/4 152/227/4 
f 155/230/4 159/274/4 156/231/4 
f 155/79/5 169/66/5 158/233/5 
f 160/235/4 166/239/4 161/236/4 
f 163/59/5 171/300/5 164/238/5 
f 166/239/4 155/301/4 157/240/4 
f 165/47/5 164/238/5 167/241/5 
f 155/242/1 168/302/1 167/81/1 
f 163/243/4 165/247/4 166/244/4 
f 163/124/6 160/256/6 170/246/6 
f 165/247/4 168/303/4 155/230/4 
f 172/248/6 175/251/6 173/249/6 
f 175/251/6 185/304/6 176/252/6 
f 177/253/4 184/265/4 178/254/4 
f 177/124/6 179/115/6 180/12/6 
f 180/129/2 179/279/2 178/257/2 
f 177/16/5 181/132/5 183/258/5 
f 176/260/2 185/305/2 154/261/2 
f 172/262/4 149/222/4 151/224/4 
f 175/263/4 151/224/4 154/229/4 
f 184/265/4 160/245/4 162/266/4 
f 184/259/5 183/258/5 170/267/5 
f 157/240/4 156/275/4 186/269/4 
f 162/237/4 161/236/4 153/225/4 
f 161/236/4 157/240/4 143/217/4 
f 178/270/6 172/248/6 174/250/6 
f 178/272/4 162/237/4 149/222/4 
f 142/216/2 141/17/2 114/273/2 
f 186/269/4 105/163/4 107/165/4 
f 144/218/4 107/165/4 114/176/4 
f 159/274/4 123/183/4 125/185/4 
f 159/234/5 158/233/5 131/191/5 
f 158/233/5 189/55/5 187/5/5 
f 156/275/4 125/209/4 105/163/4 
f 13/25/3 22/24/3 15/276/3 
f 33/273/4 34/17/4 12/16/4 
f 62/129/6 188/153/6 16/278/6 
f 22/24/3 51/89/3 16/280/3 
f 62/152/4 33/273/4 17/259/4 
# 0 polygons - 352 triangles

