# 3ds Max Wavefront OBJ Exporter v0.99 - (c)2007 guruware
# File Created: 12.05.2022 17:12:50

mtllib piernaRTirano1.mtl

#
# object Tyrannosaurus_2_001
#

v  -1.3020 0.1879 -0.7844
v  -1.8497 0.1879 -0.2367
v  -1.8497 0.1879 -0.7844
v  -1.3020 0.1879 -0.2367
v  -0.7542 4.0222 0.3111
v  -1.3020 4.0222 0.8588
v  -1.3020 4.0222 0.3111
v  -0.7542 4.0222 0.8588
v  -1.3020 6.2132 1.9543
v  -1.3020 5.6654 1.4066
v  -1.3020 6.2132 1.4066
v  -1.3020 5.6654 1.9543
v  -1.3020 2.3789 -1.3322
v  -0.7542 1.8312 -1.3322
v  -1.3020 1.8312 -1.3322
v  -1.3020 2.9267 -1.3322
v  -0.7542 2.3789 -1.3322
v  -0.7542 2.9267 -1.3322
v  -0.7542 0.1879 -0.7844
v  -0.7542 0.1879 0.3111
v  -1.3020 0.1879 0.8588
v  -1.3020 0.1879 0.3111
v  -1.8497 0.1879 0.3111
v  -0.7542 0.1879 -0.2367
v  -0.7542 0.1879 0.8588
v  -1.3020 0.1879 1.4066
v  -0.7542 0.1879 1.4066
v  -1.8497 0.7356 -0.2367
v  -1.8497 1.2834 -0.7844
v  -1.8497 0.7356 -0.7844
v  -1.8497 1.8312 -0.2367
v  -1.8497 2.3789 -0.7844
v  -1.8497 1.8312 -0.7844
v  -1.8497 1.2834 -0.2367
v  -1.8497 2.9267 -0.2367
v  -1.8497 3.4744 -0.7844
v  -1.8497 2.9267 -0.7844
v  -1.8497 4.0222 -0.2367
v  -1.8497 4.5699 -0.7844
v  -1.8497 4.0222 -0.7844
v  -1.8497 4.0222 0.8588
v  -1.8497 4.5699 0.3111
v  -1.8497 4.0222 0.3111
v  -1.8497 3.4744 -0.2367
v  -1.8497 4.5699 -0.2367
v  -1.8497 3.4744 0.3111
v  -1.8497 5.1177 -0.2367
v  -1.8497 5.6654 -0.7844
v  -1.8497 5.1177 -0.7844
v  -1.8497 5.1177 0.8588
v  -1.8497 5.6654 0.3111
v  -1.8497 5.1177 0.3111
v  -1.8497 6.2132 0.8588
v  -1.8497 6.7609 0.3111
v  -1.8497 6.2132 0.3111
v  -1.8497 5.6654 0.8588
v  -1.8497 5.6654 -0.2367
v  -1.8497 6.7609 -0.2367
v  -1.8497 6.2132 -0.2367
v  -1.8497 6.2132 1.9543
v  -1.8497 6.7609 1.4066
v  -1.8497 6.2132 1.4066
v  -1.8497 5.6654 1.9543
v  -1.8497 5.6654 1.4066
v  -1.8497 4.5699 0.8588
v  -1.8497 5.1177 1.4066
v  -1.8497 6.7609 0.8588
v  -1.8497 4.5699 1.4066
v  -1.8497 2.3789 -0.2367
v  -1.8497 7.3087 0.8588
v  -1.8497 7.8564 0.3111
v  -1.8497 7.3087 0.3111
v  -1.8497 8.4042 0.8588
v  -1.8497 8.9519 0.3111
v  -1.8497 8.4042 0.3111
v  -1.8497 7.8564 0.8588
v  -1.8497 7.8564 -0.2367
v  -1.8497 7.3087 -0.2367
v  -1.8497 8.9519 -0.2367
v  -1.8497 8.4042 -0.2367
v  -1.8497 7.3087 1.9543
v  -1.8497 7.8564 1.4066
v  -1.8497 7.3087 1.4066
v  -1.8497 8.4042 1.9543
v  -1.8497 8.9519 1.4066
v  -1.8497 8.4042 1.4066
v  -1.8497 7.8564 1.9543
v  -1.8497 8.4042 2.5021
v  -1.8497 8.9519 1.9543
v  -1.8497 7.8564 2.5021
v  -1.8497 9.4997 1.9543
v  -1.8497 10.0474 1.4066
v  -1.8497 9.4997 1.4066
v  -1.8497 8.9519 0.8588
v  -1.8497 9.4997 0.3111
v  -1.8497 9.4997 -0.2367
v  -1.8497 9.4997 0.8588
v  -1.8497 6.7609 1.9543
v  -1.8497 0.7356 0.3111
v  -1.8497 8.9519 2.5021
v  -1.8497 10.0474 1.9543
v  -1.3020 0.7356 -0.7844
v  -1.3020 1.8312 -0.7844
v  -1.3020 1.2834 -0.7844
v  -0.7542 0.7356 -0.7844
v  -0.7542 1.2834 -0.7844
v  -1.3020 2.9267 -0.7844
v  -1.3020 4.0222 -0.7844
v  -1.3020 3.4744 -0.7844
v  -0.7542 2.9267 -0.7844
v  -1.3020 4.5699 -0.7844
v  -0.7542 4.0222 -0.7844
v  -0.7542 3.4744 -0.7844
v  -1.3020 5.1177 -0.7844
v  -1.3020 5.6654 -0.7844
v  -0.7542 5.1177 -0.7844
v  -0.7542 4.5699 -0.7844
v  -1.3020 2.3789 -0.7844
v  -0.7542 1.8312 -0.7844
v  -0.7542 5.6654 -0.7844
v  -1.3020 1.2834 -0.2367
v  -1.3020 0.7356 -0.2367
v  -1.3020 2.3789 -0.2367
v  -1.3020 1.8312 -0.2367
v  -0.7542 1.2834 -0.2367
v  -0.7542 0.7356 -0.2367
v  -0.7542 2.3789 -0.2367
v  -0.7542 1.8312 -0.2367
v  -1.3020 3.4744 -0.2367
v  -1.3020 2.9267 -0.2367
v  -0.7542 3.4744 -0.2367
v  -0.7542 2.9267 -0.2367
v  -0.7542 2.3789 -0.7844
v  -0.7542 0.7356 0.8588
v  -0.7542 0.7356 0.3111
v  -0.7542 0.7356 1.4066
v  -0.7542 4.5699 -0.2367
v  -0.7542 4.5699 0.8588
v  -0.7542 4.5699 0.3111
v  -0.7542 4.0222 -0.2367
v  -0.7542 5.6654 -0.2367
v  -0.7542 5.6654 0.8588
v  -0.7542 5.1177 0.3111
v  -0.7542 5.6654 0.3111
v  -0.7542 6.7609 0.8588
v  -0.7542 6.2132 0.3111
v  -0.7542 6.7609 0.3111
v  -0.7542 6.2132 0.8588
v  -0.7542 5.1177 -0.2367
v  -0.7542 6.2132 -0.2367
v  -0.7542 6.7609 -0.2367
v  -0.7542 6.7609 1.9543
v  -0.7542 6.2132 1.4066
v  -0.7542 6.7609 1.4066
v  -0.7542 5.1177 0.8588
v  -0.7542 5.6654 1.4066
v  -0.7542 5.1177 1.4066
v  -0.7542 3.4744 0.3111
v  -0.7542 4.5699 1.4066
v  -1.3020 0.7356 0.3111
v  -1.3020 0.7356 0.8588
v  -1.3020 0.7356 1.4066
v  -1.3020 4.5699 0.8588
v  -1.3020 3.4744 0.3111
v  -1.3020 5.6654 -0.2367
v  -1.3020 6.2132 -0.2367
v  -1.3020 6.7609 -0.2367
v  -1.3020 7.3087 -0.2367
v  -1.3020 8.4042 -0.2367
v  -1.3020 7.8564 -0.2367
v  -1.3020 8.9519 -0.2367
v  -1.3020 9.4997 -0.2367
v  -1.3020 5.1177 1.4066
v  -1.3020 4.5699 1.4066
v  -1.3020 6.7609 1.9543
v  -0.7542 6.2132 1.9543
v  -1.3020 7.8564 1.9543
v  -1.3020 7.3087 1.9543
v  -0.7542 7.3087 1.9543
v  -1.3020 8.9519 2.5021
v  -1.3020 8.4042 2.5021
v  -1.3020 7.8564 2.5021
v  -1.3020 8.9519 1.9543
v  -1.3020 9.4997 0.8588
v  -1.3020 9.4997 0.3111
v  -1.3020 9.4997 1.4066
v  -1.3020 10.0474 1.9543
v  -1.3020 10.0474 1.4066
v  -1.3020 9.4997 1.9543
# 189 vertices

vn 0.0000 -1.0000 0.0000
vn 1.0000 0.0000 0.0000
vn 0.0000 0.0000 -1.0000
vn -1.0000 0.0000 0.0000
vn 0.0000 -0.0000 1.0000
vn 0.0000 1.0000 0.0000
# 6 vertex normals

vt 0.4226 0.8289 0.0000
vt 0.4025 0.8188 0.0000
vt 0.4251 0.8231 0.0000
vt 0.4000 0.8245 0.0000
vt 0.6778 0.7510 0.0000
vt 0.6355 0.7086 0.0000
vt 0.6778 0.7086 0.0000
vt 0.6355 0.7510 0.0000
vt 0.4379 0.8506 0.0000
vt 0.4629 0.8492 0.0000
vt 0.4605 0.8550 0.0000
vt 0.4403 0.8448 0.0000
vt 0.5332 0.8565 0.0000
vt 0.5081 0.8579 0.0000
vt 0.5106 0.8521 0.0000
vt 0.5558 0.8608 0.0000
vt 0.5307 0.8623 0.0000
vt 0.5533 0.8666 0.0000
vt 0.4202 0.8347 0.0000
vt 0.3750 0.8260 0.0000
vt 0.3548 0.8158 0.0000
vt 0.3774 0.8202 0.0000
vt 0.0000 0.0000 0.0000
vt 0.3976 0.8303 0.0000
vt 0.3524 0.8216 0.0000
vt 0.3322 0.8115 0.0000
vt 0.3298 0.8173 0.0000
vt 0.4402 0.7156 0.0000
vt 0.4566 0.7259 0.0000
vt 0.4346 0.7207 0.0000
vt 0.6582 0.4852 0.0000
vt 0.6958 0.4476 0.0000
vt 0.6958 0.4852 0.0000
vt 0.6582 0.5227 0.0000
vt 0.6958 0.5227 0.0000
vt 0.4705 0.5603 0.0000
vt 0.5081 0.5227 0.0000
vt 0.5081 0.5603 0.0000
vt 0.6582 0.4101 0.0000
vt 0.6958 0.3725 0.0000
vt 0.6958 0.4101 0.0000
vt 0.6210 0.8776 0.0000
vt 0.6586 0.8400 0.0000
vt 0.6586 0.8776 0.0000
vt 0.6087 0.3128 0.0000
vt 0.5664 0.3552 0.0000
vt 0.5664 0.3128 0.0000
vt 0.6582 0.3725 0.0000
vt 0.6958 0.3350 0.0000
vt 0.4649 0.7692 0.0000
vt 0.4813 0.7795 0.0000
vt 0.4592 0.7743 0.0000
vt 0.5855 0.4107 0.0000
vt 0.6018 0.4209 0.0000
vt 0.5798 0.4158 0.0000
vt 0.6210 0.8025 0.0000
vt 0.6586 0.7649 0.0000
vt 0.6586 0.8025 0.0000
vt 0.4661 0.7510 0.0000
vt 0.4237 0.7933 0.0000
vt 0.4237 0.7510 0.0000
vt 0.5586 0.7847 0.0000
vt 0.5750 0.7949 0.0000
vt 0.5530 0.7898 0.0000
vt 0.4661 0.7933 0.0000
vt 0.4237 0.8357 0.0000
vt 0.5089 0.7795 0.0000
vt 0.5253 0.7897 0.0000
vt 0.5033 0.7846 0.0000
vt 0.7254 0.8851 0.0000
vt 0.7630 0.8476 0.0000
vt 0.7630 0.8851 0.0000
vt 0.7254 0.9227 0.0000
vt 0.7630 0.9227 0.0000
vt 0.6207 0.2599 0.0000
vt 0.5831 0.2975 0.0000
vt 0.5831 0.2599 0.0000
vt 0.6207 0.2224 0.0000
vt 0.5831 0.2224 0.0000
vt 0.6210 0.8400 0.0000
vt 0.4661 0.7086 0.0000
vt 0.4237 0.7086 0.0000
vt 0.4869 0.7744 0.0000
vt 0.6628 0.4158 0.0000
vt 0.6792 0.4261 0.0000
vt 0.6572 0.4209 0.0000
vt 0.5642 0.7795 0.0000
vt 0.5806 0.7898 0.0000
vt 0.5084 0.7933 0.0000
vt 0.4661 0.8357 0.0000
vt 0.6408 0.4107 0.0000
vt 0.6351 0.4158 0.0000
vt 0.6582 0.4476 0.0000
vt 0.6027 0.7949 0.0000
vt 0.6191 0.8052 0.0000
vt 0.5970 0.8000 0.0000
vt 0.6467 0.8052 0.0000
vt 0.6631 0.8154 0.0000
vt 0.6411 0.8103 0.0000
vt 0.6247 0.8001 0.0000
vt 0.7254 0.8100 0.0000
vt 0.7630 0.7725 0.0000
vt 0.7630 0.8100 0.0000
vt 0.7254 0.7350 0.0000
vt 0.7630 0.6974 0.0000
vt 0.7630 0.7350 0.0000
vt 0.7254 0.7725 0.0000
vt 0.6207 0.3350 0.0000
vt 0.5831 0.3725 0.0000
vt 0.5831 0.3350 0.0000
vt 0.6580 0.7950 0.0000
vt 0.6744 0.8052 0.0000
vt 0.6524 0.8001 0.0000
vt 0.6207 0.3725 0.0000
vt 0.5831 0.4101 0.0000
vt 0.6207 0.4476 0.0000
vt 0.6207 0.4101 0.0000
vt 0.4330 0.2599 0.0000
vt 0.4705 0.2224 0.0000
vt 0.4705 0.2599 0.0000
vt 0.6879 0.6974 0.0000
vt 0.7254 0.6599 0.0000
vt 0.7254 0.6974 0.0000
vt 0.7630 0.6599 0.0000
vt 0.4330 0.2975 0.0000
vt 0.4705 0.2975 0.0000
vt 0.6083 0.7898 0.0000
vt 0.6687 0.8103 0.0000
vt 0.6303 0.7949 0.0000
vt 0.6503 0.6974 0.0000
vt 0.6879 0.6599 0.0000
vt 0.7254 0.8476 0.0000
vt 0.6207 0.2975 0.0000
vt 0.5863 0.7847 0.0000
vt 0.4623 0.7208 0.0000
vt 0.4182 0.7105 0.0000
vt 0.4705 0.5227 0.0000
vt 0.6087 0.3552 0.0000
vt 0.6582 0.3350 0.0000
vt 0.6075 0.4158 0.0000
vt 0.6210 0.7649 0.0000
vt 0.5309 0.7846 0.0000
vt 0.6848 0.4210 0.0000
vt 0.5084 0.8357 0.0000
vt 0.6800 0.8001 0.0000
vt 0.4330 0.2224 0.0000
vt 0.6503 0.6599 0.0000
vt 0.5204 0.8290 0.0000
vt 0.4954 0.8304 0.0000
vt 0.4978 0.8246 0.0000
vt 0.5657 0.8377 0.0000
vt 0.5406 0.8391 0.0000
vt 0.5430 0.8333 0.0000
vt 0.5180 0.8348 0.0000
vt 0.4929 0.8362 0.0000
vt 0.5155 0.8406 0.0000
vt 0.4728 0.8261 0.0000
vt 0.4752 0.8203 0.0000
vt 0.4703 0.8318 0.0000
vt 0.6109 0.8464 0.0000
vt 0.5858 0.8478 0.0000
vt 0.5883 0.8421 0.0000
vt 0.6561 0.8551 0.0000
vt 0.6310 0.8566 0.0000
vt 0.6335 0.8508 0.0000
vt 0.6084 0.8522 0.0000
vt 0.5833 0.8536 0.0000
vt 0.6536 0.8609 0.0000
vt 0.6285 0.8623 0.0000
vt 0.6059 0.8580 0.0000
vt 0.7013 0.8639 0.0000
vt 0.6762 0.8653 0.0000
vt 0.6787 0.8595 0.0000
vt 0.6988 0.8696 0.0000
vt 0.6737 0.8711 0.0000
vt 0.6511 0.8667 0.0000
vt 0.5632 0.8435 0.0000
vt 0.5381 0.8449 0.0000
vt 0.6963 0.8754 0.0000
vt 0.4452 0.8333 0.0000
vt 0.5333 0.8068 0.0000
vt 0.5358 0.8010 0.0000
vt 0.4904 0.8420 0.0000
vt 0.4654 0.8434 0.0000
vt 0.4678 0.8376 0.0000
vt 0.4477 0.8275 0.0000
vt 0.5383 0.7952 0.0000
vt 0.4428 0.8390 0.0000
vt 0.5357 0.8507 0.0000
vt 0.5131 0.8463 0.0000
vt 0.4880 0.8478 0.0000
vt 0.4594 0.7974 0.0000
vt 0.4371 0.7874 0.0000
vt 0.4598 0.7912 0.0000
vt 0.5049 0.8050 0.0000
vt 0.4826 0.7951 0.0000
vt 0.5053 0.7989 0.0000
vt 0.4822 0.8012 0.0000
vt 0.4367 0.7936 0.0000
vt 0.4144 0.7836 0.0000
vt 0.4359 0.8059 0.0000
vt 0.4136 0.7959 0.0000
vt 0.4363 0.7997 0.0000
vt 0.5271 0.7619 0.0000
vt 0.4355 0.8120 0.0000
vt 0.4131 0.8021 0.0000
vt 0.5504 0.8127 0.0000
vt 0.5280 0.8027 0.0000
vt 0.5508 0.8065 0.0000
vt 0.5958 0.8203 0.0000
vt 0.5735 0.8103 0.0000
vt 0.5962 0.8141 0.0000
vt 0.5950 0.8326 0.0000
vt 0.5727 0.8226 0.0000
vt 0.5954 0.8264 0.0000
vt 0.5731 0.8165 0.0000
vt 0.6413 0.8279 0.0000
vt 0.6190 0.8180 0.0000
vt 0.6417 0.8218 0.0000
vt 0.6405 0.8402 0.0000
vt 0.6181 0.8303 0.0000
vt 0.6409 0.8341 0.0000
vt 0.6859 0.8479 0.0000
vt 0.6636 0.8379 0.0000
vt 0.6863 0.8417 0.0000
vt 0.6632 0.8441 0.0000
vt 0.6186 0.8241 0.0000
vt 0.6640 0.8317 0.0000
vt 0.6868 0.8356 0.0000
vt 0.6851 0.8602 0.0000
vt 0.6628 0.8502 0.0000
vt 0.6855 0.8540 0.0000
vt 0.6177 0.8364 0.0000
vt 0.6401 0.8464 0.0000
vt 0.6173 0.8426 0.0000
vt 0.5276 0.8088 0.0000
vt 0.4830 0.7889 0.0000
vt 0.5057 0.7927 0.0000
vt 0.5284 0.7965 0.0000
vt 0.4140 0.7898 0.0000
vt 0.5267 0.7680 0.0000
vt 0.4127 0.8082 0.0000
vt 0.5499 0.8188 0.0000
vt 0.5946 0.8388 0.0000
vt 0.6462 0.8783 0.0000
vt 0.6663 0.8884 0.0000
vt 0.6437 0.8841 0.0000
vt 0.6865 0.8986 0.0000
vt 0.6639 0.8942 0.0000
vt 0.6688 0.8826 0.0000
vt 0.6889 0.8928 0.0000
vt 0.6236 0.8739 0.0000
vt 0.6211 0.8797 0.0000
vt 0.6914 0.8870 0.0000
vt 0.4126 0.7156 0.0000
vt 0.7709 0.3350 0.0000
vt 0.7333 0.2975 0.0000
vt 0.7709 0.2975 0.0000
vt 0.7709 0.3725 0.0000
vt 0.7333 0.3350 0.0000
vt 0.7333 0.3725 0.0000
vt 0.5057 0.8637 0.0000
vt 0.5283 0.8680 0.0000
vt 0.4760 0.7617 0.0000
vt 0.4510 0.7632 0.0000
vt 0.4534 0.7574 0.0000
vt 0.4736 0.7675 0.0000
vt 0.6355 0.6663 0.0000
vt 0.6778 0.6663 0.0000
vt 0.5931 0.7933 0.0000
vt 0.5508 0.8357 0.0000
vt 0.5508 0.7933 0.0000
vt 0.5931 0.7510 0.0000
vt 0.5508 0.7510 0.0000
vt 0.5931 0.8357 0.0000
vt 0.4661 0.8780 0.0000
vt 0.4237 0.8780 0.0000
vt 0.4855 0.8535 0.0000
vt 0.4177 0.8405 0.0000
vt 0.3951 0.8361 0.0000
vt 0.6713 0.8768 0.0000
vt 0.6487 0.8725 0.0000
vt 0.6939 0.8812 0.0000
vt 0.6010 0.8696 0.0000
vt 0.6261 0.8681 0.0000
vt 0.5809 0.8594 0.0000
vt 0.5784 0.8652 0.0000
vt 0.6035 0.8638 0.0000
vt 0.5583 0.8551 0.0000
vt 0.5084 0.8780 0.0000
vt 0.5508 0.8780 0.0000
vt 0.5931 0.6663 0.0000
vt 0.5931 0.7086 0.0000
vt 0.5508 0.6663 0.0000
vt 0.5508 0.7086 0.0000
vt 0.4179 0.7752 0.0000
vt 0.3929 0.7767 0.0000
vt 0.3953 0.7709 0.0000
vt 0.4276 0.8173 0.0000
vt 0.4050 0.8130 0.0000
vt 0.4300 0.8116 0.0000
vt 0.4074 0.8072 0.0000
vt 0.4502 0.8217 0.0000
vt 0.4526 0.8159 0.0000
vt 0.3700 0.8375 0.0000
vt 0.3499 0.8274 0.0000
vt 0.3725 0.8318 0.0000
vt 0.3474 0.8332 0.0000
vt 0.6355 0.7933 0.0000
vt 0.6355 0.8357 0.0000
vt 0.4974 0.7864 0.0000
vt 0.4723 0.7878 0.0000
vt 0.4748 0.7820 0.0000
vt 0.4497 0.7834 0.0000
vt 0.4521 0.7777 0.0000
vt 0.3121 0.8013 0.0000
vt 0.3372 0.7999 0.0000
vt 0.3347 0.8057 0.0000
vt 0.3146 0.7955 0.0000
vt 0.4831 0.8593 0.0000
vt 0.5985 0.8753 0.0000
vt 0.5759 0.8710 0.0000
vt 0.4152 0.8463 0.0000
vt 0.3926 0.8419 0.0000
vt 0.5097 0.6918 0.0000
vt 0.6774 0.8595 0.0000
vt 0.5097 0.8595 0.0000
vt 0.5961 0.8811 0.0000
vt 0.5735 0.8768 0.0000
vt 0.4528 0.7662 0.0000
vt 0.4729 0.7764 0.0000
vt 0.4503 0.7720 0.0000
vt 0.4754 0.7706 0.0000
vt 0.4955 0.7807 0.0000
vt 0.4980 0.7749 0.0000
vt 0.4479 0.7778 0.0000
vt 0.4228 0.7792 0.0000
vt 0.4253 0.7734 0.0000
vt 0.4454 0.7836 0.0000
vt 0.5723 0.8288 0.0000
vt 0.6624 0.8564 0.0000
vt 0.4155 0.7810 0.0000
vt 0.4949 0.7922 0.0000
vt 0.6774 0.6918 0.0000
vt 0.6187 0.8855 0.0000
# 345 texture coords

o Tyrannosaurus_2_001
g Tyrannosaurus_2_001
usemtl Material_001
s 1
f 1/1/1 2/2/1 3/3/1 
f 1/1/1 4/4/1 2/2/1 
s 2
f 5/5/1 6/6/1 7/7/1 
f 5/5/1 8/8/1 6/6/1 
s 3
f 9/9/2 10/10/2 11/11/2 
f 9/9/2 12/12/2 10/10/2 
s 4
f 13/13/3 14/14/3 15/15/3 
f 16/16/3 17/17/3 13/13/3 
f 13/13/3 17/17/3 14/14/3 
f 16/16/3 18/18/3 17/17/3 
s 5
f 19/19/1 4/4/1 1/1/1 
f 20/20/1 21/21/1 22/22/1 
f 4/23/1 23/23/1 2/23/1 
f 24/24/1 22/22/1 4/4/1 
f 25/25/1 26/26/1 21/21/1 
f 19/19/1 24/24/1 4/4/1 
f 20/20/1 25/25/1 21/21/1 
f 4/23/1 22/23/1 23/23/1 
f 24/24/1 20/20/1 22/22/1 
f 25/25/1 27/27/1 26/26/1 
s 6
f 28/28/4 29/29/4 30/30/4 
f 31/31/4 32/32/4 33/33/4 
f 34/34/4 33/33/4 29/35/4 
f 23/36/4 28/37/4 2/38/4 
f 35/39/4 36/40/4 37/41/4 
f 38/42/4 39/43/4 40/44/4 
f 41/45/4 42/46/4 43/47/4 
f 44/48/4 40/49/4 36/40/4 
f 43/50/4 45/51/4 38/52/4 
f 46/53/4 38/54/4 44/55/4 
f 47/56/4 48/57/4 49/58/4 
f 50/59/4 51/60/4 52/61/4 
f 53/62/4 54/63/4 55/64/4 
f 56/65/4 55/66/4 51/60/4 
f 52/67/4 57/68/4 47/69/4 
f 55/70/4 58/71/4 59/72/4 
f 51/73/4 59/72/4 57/74/4 
f 60/75/4 61/76/4 62/77/4 
f 63/78/4 62/77/4 64/79/4 
f 45/80/4 49/58/4 39/43/4 
f 65/81/4 52/61/4 42/82/4 
f 42/83/4 47/69/4 45/51/4 
f 66/84/4 56/85/4 50/86/4 
f 62/87/4 67/88/4 53/62/4 
f 64/89/4 53/90/4 56/65/4 
f 68/91/4 50/86/4 65/92/4 
f 69/93/4 37/41/4 32/32/4 
f 70/94/4 71/95/4 72/96/4 
f 73/97/4 74/98/4 75/99/4 
f 76/100/4 75/99/4 71/95/4 
f 72/101/4 77/102/4 78/103/4 
f 75/104/4 79/105/4 80/106/4 
f 71/107/4 80/106/4 77/102/4 
f 81/108/4 82/109/4 83/110/4 
f 84/111/4 85/112/4 86/113/4 
f 87/114/4 86/115/4 82/109/4 
f 88/39/4 89/116/4 84/117/4 
f 90/48/4 84/117/4 87/114/4 
f 91/118/4 92/119/4 93/120/4 
f 94/121/4 95/122/4 74/123/4 
f 74/123/4 96/124/4 79/105/4 
f 89/125/4 93/120/4 85/126/4 
f 83/127/4 76/100/4 70/94/4 
f 86/113/4 94/128/4 73/97/4 
f 82/129/4 73/97/4 76/100/4 
f 85/130/4 97/131/4 94/121/4 
f 67/88/4 72/96/4 54/63/4 
f 54/132/4 78/103/4 58/71/4 
f 98/133/4 83/110/4 61/76/4 
f 61/134/4 70/94/4 67/88/4 
f 28/28/4 34/135/4 29/29/4 
f 31/31/4 69/93/4 32/32/4 
f 34/34/4 31/31/4 33/33/4 
f 2/136/4 28/28/4 30/30/4 
f 23/36/4 99/137/4 28/37/4 
f 35/39/4 44/48/4 36/40/4 
f 38/42/4 45/80/4 39/43/4 
f 41/45/4 65/138/4 42/46/4 
f 44/48/4 38/139/4 40/49/4 
f 43/50/4 42/83/4 45/51/4 
f 46/53/4 43/140/4 38/54/4 
f 47/56/4 57/141/4 48/57/4 
f 50/59/4 56/65/4 51/60/4 
f 53/62/4 67/88/4 54/63/4 
f 56/65/4 53/90/4 55/66/4 
f 52/67/4 51/142/4 57/68/4 
f 55/70/4 54/132/4 58/71/4 
f 51/73/4 55/70/4 59/72/4 
f 60/75/4 98/133/4 61/76/4 
f 63/78/4 60/75/4 62/77/4 
f 45/80/4 47/56/4 49/58/4 
f 65/81/4 50/59/4 52/61/4 
f 42/83/4 52/67/4 47/69/4 
f 66/84/4 64/143/4 56/85/4 
f 62/87/4 61/134/4 67/88/4 
f 64/89/4 62/144/4 53/90/4 
f 68/91/4 66/84/4 50/86/4 
f 69/93/4 35/39/4 37/41/4 
f 70/94/4 76/100/4 71/95/4 
f 73/97/4 94/128/4 74/98/4 
f 76/100/4 73/97/4 75/99/4 
f 72/101/4 71/107/4 77/102/4 
f 75/104/4 74/123/4 79/105/4 
f 71/107/4 75/104/4 80/106/4 
f 81/108/4 87/114/4 82/109/4 
f 84/111/4 89/145/4 85/112/4 
f 87/114/4 84/117/4 86/115/4 
f 88/39/4 100/93/4 89/116/4 
f 90/48/4 88/39/4 84/117/4 
f 91/118/4 101/146/4 92/119/4 
f 94/121/4 97/131/4 95/122/4 
f 74/123/4 95/122/4 96/124/4 
f 89/125/4 91/118/4 93/120/4 
f 83/127/4 82/129/4 76/100/4 
f 86/113/4 85/112/4 94/128/4 
f 82/129/4 86/113/4 73/97/4 
f 85/130/4 93/147/4 97/131/4 
f 67/88/4 70/94/4 72/96/4 
f 54/132/4 72/101/4 78/103/4 
f 98/133/4 81/108/4 83/110/4 
f 61/134/4 83/127/4 70/94/4 
s 7
f 29/148/3 102/149/3 30/150/3 
f 32/151/3 103/152/3 33/153/3 
f 104/154/3 105/155/3 102/149/3 
f 33/153/3 104/154/3 29/148/3 
f 103/152/3 106/156/3 104/154/3 
f 30/150/3 1/157/3 3/158/3 
f 102/149/3 19/159/3 1/157/3 
f 36/160/3 107/161/3 37/162/3 
f 39/163/3 108/164/3 40/165/3 
f 109/166/3 110/167/3 107/161/3 
f 111/168/3 112/169/3 108/164/3 
f 40/165/3 109/166/3 36/160/3 
f 108/164/3 113/170/3 109/166/3 
f 48/171/3 114/172/3 49/173/3 
f 115/174/3 116/175/3 114/172/3 
f 49/173/3 111/168/3 39/163/3 
f 114/172/3 117/176/3 111/168/3 
f 37/162/3 118/177/3 32/151/3 
f 29/148/3 104/154/3 102/149/3 
f 32/151/3 118/177/3 103/152/3 
f 104/154/3 106/156/3 105/155/3 
f 33/153/3 103/152/3 104/154/3 
f 103/152/3 119/178/3 106/156/3 
f 30/150/3 102/149/3 1/157/3 
f 102/149/3 105/155/3 19/159/3 
f 36/160/3 109/166/3 107/161/3 
f 39/163/3 111/168/3 108/164/3 
f 109/166/3 113/170/3 110/167/3 
f 111/168/3 117/176/3 112/169/3 
f 40/165/3 108/164/3 109/166/3 
f 108/164/3 112/169/3 113/170/3 
f 48/171/3 115/174/3 114/172/3 
f 115/174/3 120/179/3 116/175/3 
f 49/173/3 114/172/3 111/168/3 
f 114/172/3 116/175/3 117/176/3 
f 37/162/3 107/161/3 118/177/3 
s 8
f 121/180/5 28/181/5 122/182/5 
f 123/183/5 31/184/5 124/185/5 
f 125/186/5 122/182/5 126/187/5 
f 127/155/5 124/185/5 128/159/5 
f 124/185/5 34/188/5 121/180/5 
f 128/159/5 121/180/5 125/186/5 
f 129/189/5 35/15/5 130/190/5 
f 131/178/5 130/190/5 132/156/5 
f 130/190/5 69/191/5 123/183/5 
f 132/156/5 123/183/5 127/155/5 
f 121/180/5 34/188/5 28/181/5 
f 123/183/5 69/191/5 31/184/5 
f 125/186/5 121/180/5 122/182/5 
f 127/155/5 123/183/5 124/185/5 
f 124/185/5 31/184/5 34/188/5 
f 128/159/5 124/185/5 121/180/5 
f 129/189/5 44/13/5 35/15/5 
f 131/178/5 129/189/5 130/190/5 
f 130/190/5 35/15/5 69/191/5 
f 132/156/5 130/190/5 123/183/5 
s 9
f 125/192/2 105/193/2 106/194/2 
f 127/195/2 119/196/2 133/197/2 
f 128/198/2 106/194/2 119/196/2 
f 126/199/2 19/200/2 105/193/2 
f 134/201/2 20/202/2 135/203/2 
f 135/203/2 24/204/2 126/199/2 
f 136/205/2 25/206/2 134/201/2 
f 131/207/2 110/208/2 113/209/2 
f 137/210/2 112/211/2 117/212/2 
f 138/213/2 5/214/2 139/215/2 
f 140/216/2 113/209/2 112/211/2 
f 139/215/2 140/216/2 137/210/2 
f 5/214/2 131/207/2 140/216/2 
f 141/217/2 116/218/2 120/219/2 
f 142/220/2 143/221/2 144/222/2 
f 145/223/2 146/224/2 147/225/2 
f 148/226/2 144/222/2 146/224/2 
f 144/222/2 149/227/2 141/217/2 
f 147/225/2 150/228/2 151/229/2 
f 146/224/2 141/217/2 150/228/2 
f 152/230/2 153/231/2 154/232/2 
f 149/227/2 117/212/2 116/218/2 
f 155/233/2 139/215/2 143/221/2 
f 143/221/2 137/210/2 149/227/2 
f 156/234/2 155/233/2 142/220/2 
f 154/232/2 148/226/2 145/223/2 
f 153/231/2 142/220/2 148/226/2 
f 157/235/2 138/213/2 155/233/2 
f 132/236/2 133/197/2 110/208/2 
f 133/197/2 14/237/2 17/238/2 
f 110/208/2 17/238/2 18/239/2 
f 125/192/2 126/199/2 105/193/2 
f 127/195/2 128/198/2 119/196/2 
f 128/198/2 125/192/2 106/194/2 
f 126/199/2 24/240/2 19/200/2 
f 134/201/2 25/206/2 20/202/2 
f 135/203/2 20/241/2 24/204/2 
f 136/205/2 27/242/2 25/206/2 
f 131/207/2 132/236/2 110/208/2 
f 137/210/2 140/216/2 112/211/2 
f 140/216/2 131/207/2 113/209/2 
f 139/215/2 5/214/2 140/216/2 
f 5/214/2 158/243/2 131/207/2 
f 141/217/2 149/227/2 116/218/2 
f 142/220/2 155/233/2 143/221/2 
f 145/223/2 148/226/2 146/224/2 
f 148/226/2 142/220/2 144/222/2 
f 144/222/2 143/221/2 149/227/2 
f 147/225/2 146/224/2 150/228/2 
f 146/224/2 144/222/2 141/217/2 
f 149/227/2 137/210/2 117/212/2 
f 155/233/2 138/213/2 139/215/2 
f 143/221/2 139/215/2 137/210/2 
f 156/234/2 157/235/2 155/233/2 
f 154/232/2 153/231/2 148/226/2 
f 153/231/2 156/234/2 142/220/2 
f 157/235/2 159/244/2 138/213/2 
f 132/236/2 127/195/2 133/197/2 
f 133/197/2 119/196/2 14/237/2 
f 110/208/2 133/197/2 17/238/2 
s 10
f 134/245/6 160/246/6 161/247/6 
f 160/246/6 28/248/6 99/249/6 
f 135/250/6 122/251/6 160/246/6 
f 136/252/6 161/247/6 162/253/6 
f 134/245/6 135/250/6 160/246/6 
f 160/246/6 122/251/6 28/248/6 
f 135/250/6 126/254/6 122/251/6 
f 136/252/6 134/245/6 161/247/6 
s 11
f 2/136/4 30/30/4 3/255/4 
s 12
f 21/256/4 160/257/4 22/258/4 
f 26/259/4 161/260/4 21/256/4 
f 21/256/4 161/260/4 160/257/4 
f 26/259/4 162/261/4 161/260/4 
s 13
f 160/17/5 23/262/5 22/14/5 
f 160/17/5 99/263/5 23/262/5 
s 14
f 136/264/5 26/265/5 27/266/5 
f 136/264/5 162/267/5 26/265/5 
s 15
f 7/7/1 41/268/1 43/269/1 
f 7/7/1 6/6/1 41/268/1 
s 16
f 163/270/5 41/271/5 6/272/5 
f 138/273/5 6/272/5 8/274/5 
f 163/270/5 65/275/5 41/271/5 
f 138/273/5 163/270/5 6/272/5 
s 17
f 7/66/5 46/276/5 164/277/5 
f 7/66/5 43/90/5 46/276/5 
s 18
f 129/278/1 46/15/1 44/14/1 
f 131/10/1 164/191/1 129/278/1 
f 129/278/1 164/191/1 46/15/1 
f 131/10/1 158/184/1 164/191/1 
s 19
f 5/279/5 164/24/5 158/19/5 
f 5/279/5 7/280/5 164/24/5 
s 20
f 165/188/6 48/279/6 57/19/6 
f 141/184/6 115/12/6 165/188/6 
f 165/188/6 115/12/6 48/279/6 
f 141/184/6 120/10/6 115/12/6 
s 21
f 58/245/3 166/281/3 59/250/3 
f 167/282/3 150/175/3 166/281/3 
f 59/250/3 165/283/3 57/254/3 
f 166/281/3 141/179/3 165/283/3 
f 77/284/3 168/285/3 78/252/3 
f 79/16/3 169/286/3 80/287/3 
f 80/287/3 170/288/3 77/284/3 
f 96/13/3 171/289/3 79/16/3 
f 78/252/3 167/282/3 58/245/3 
f 58/245/3 167/282/3 166/281/3 
f 167/282/3 151/176/3 150/175/3 
f 59/250/3 166/281/3 165/283/3 
f 166/281/3 150/175/3 141/179/3 
f 77/284/3 170/288/3 168/285/3 
f 79/16/3 171/289/3 169/286/3 
f 80/287/3 169/286/3 170/288/3 
f 96/13/3 172/189/3 171/289/3 
f 78/252/3 168/285/3 167/282/3 
s 22
f 10/271/1 63/290/1 64/144/1 
f 10/271/1 12/291/1 63/290/1 
s 23
f 10/292/5 66/6/5 173/293/5 
f 156/294/5 173/293/5 157/295/5 
f 153/296/5 10/297/5 156/298/5 
f 173/293/5 68/8/5 174/273/5 
f 157/295/5 174/273/5 159/274/5 
f 10/292/5 64/268/5 66/6/5 
f 156/294/5 10/292/5 173/293/5 
f 173/293/5 66/6/5 68/8/5 
f 157/295/5 173/293/5 174/273/5 
s 24
f 175/299/5 60/2/5 9/300/5 
f 152/301/5 9/300/5 176/302/5 
f 177/157/5 81/186/5 178/303/5 
f 178/303/5 98/3/5 175/299/5 
f 179/304/5 175/299/5 152/301/5 
f 175/299/5 98/3/5 60/2/5 
f 152/301/5 175/299/5 9/300/5 
f 9/144/5 60/290/5 63/276/5 
f 178/303/5 81/186/5 98/3/5 
f 179/304/5 178/303/5 175/299/5 
s 25
f 153/305/1 9/306/1 11/307/1 
f 153/305/1 176/308/1 9/306/1 
s 26
f 9/144/5 63/276/5 12/90/5 
s 27
f 163/309/1 68/273/1 65/8/1 
f 138/310/1 174/270/1 163/309/1 
f 163/309/1 174/270/1 68/273/1 
f 138/310/1 159/275/1 174/270/1 
s 28
f 180/311/5 88/312/5 181/313/5 
f 181/313/5 90/314/5 182/315/5 
f 181/313/5 88/312/5 90/314/5 
s 29
f 177/316/1 90/317/1 87/318/1 
f 177/316/1 182/319/1 90/317/1 
s 30
f 180/278/6 89/262/6 100/320/6 
f 180/278/6 183/14/6 89/262/6 
s 31
f 184/287/6 95/321/6 97/322/6 
f 185/284/6 96/253/6 95/321/6 
f 186/16/6 97/322/6 93/18/6 
f 184/287/6 185/284/6 95/321/6 
f 185/284/6 172/252/6 96/253/6 
f 186/16/6 184/287/6 97/322/6 
s 32
f 187/280/6 92/323/6 101/324/6 
f 187/280/6 188/279/6 92/323/6 
s 33
f 92/325/3 186/326/3 93/327/3 
s 34
f 187/253/5 91/328/5 189/321/5 
f 189/321/5 89/329/5 183/322/5 
f 189/321/5 91/328/5 89/329/5 
s 35
f 103/330/4 13/331/4 15/332/4 
f 118/333/4 16/334/4 13/331/4 
f 103/330/4 118/333/4 13/331/4 
f 118/333/4 107/335/4 16/334/4 
s 36
f 14/9/1 103/279/1 15/12/1 
f 14/9/1 119/323/1 103/279/1 
s 37
f 110/336/6 16/337/6 107/338/6 
f 110/336/6 18/339/6 16/337/6 
s 38
f 138/213/2 8/340/2 5/214/2 
s 39
f 152/230/2 176/341/2 153/231/2 
s 40
f 153/296/5 11/342/5 10/297/5 
s 41
f 177/157/5 87/159/5 81/186/5 
s 42
f 180/311/5 100/343/5 88/312/5 
s 43
f 92/325/3 188/344/3 186/326/3 
s 44
f 187/253/5 101/345/5 91/328/5 
# 0 polygons - 352 triangles

