# Blender v3.1.2 OBJ File: 'dinosaurios.blend'
# www.blender.org
mtllib piernaLTirano.mtl
o Tyrannosaurus_2
v 0.669725 1.831151 -1.332176
v 1.217477 1.831151 -1.332176
v 0.669725 0.187893 -0.784424
v 0.669725 0.187893 -0.236671
v 0.669725 0.187893 0.311081
v 0.669725 0.187893 0.858833
v 1.217477 0.187893 -0.784424
v 1.217477 0.187893 -0.236671
v 1.765230 0.187893 -0.784424
v 1.765230 0.187893 -0.236671
v 1.217477 0.187893 0.311081
v 1.217477 0.187893 0.858833
v 1.765230 0.187893 0.311081
v 0.669725 0.187893 1.406586
v 1.217477 0.187893 1.406586
v 0.669725 1.831151 -0.784424
v 1.217477 1.831151 -0.784424
v 0.669725 1.831151 -1.332176
v 0.669725 2.378904 -1.332176
v 1.217477 1.831151 -1.332176
v 1.217477 2.378904 -1.332176
v 0.669725 2.926656 -1.332176
v 1.217477 2.926656 -1.332176
v 0.669725 0.187893 -0.784424
v 0.669725 0.187893 -0.236671
v 0.669725 0.187893 0.311081
v 0.669725 0.187893 0.858833
v 1.217477 0.187893 -0.784424
v 1.765230 0.187893 -0.784424
v 1.765230 0.187893 -0.236671
v 1.217477 0.187893 0.311081
v 1.217477 0.187893 0.858833
v 1.765230 0.187893 0.311081
v 0.669725 0.187893 1.406586
v 1.217477 0.187893 1.406586
v 0.669725 0.735646 -0.784424
v 0.669725 0.735646 -0.236671
v 0.669725 1.283399 -0.784424
v 0.669725 1.283399 -0.236671
v 0.669725 0.735646 0.311081
v 0.669725 0.735646 0.858833
v 0.669725 1.831151 -0.784424
v 0.669725 1.831151 -0.236671
v 0.669725 2.378903 -0.784423
v 0.669725 2.378903 -0.236671
v 1.217477 0.735646 -0.784424
v 1.217477 0.735646 -0.236671
v 1.217477 1.283399 -0.784424
v 1.217477 1.283399 -0.236671
v 1.765230 0.735646 -0.784424
v 1.765230 0.735646 -0.236671
v 1.765230 1.283399 -0.784424
v 1.765230 1.283399 -0.236671
v 1.217477 0.735646 0.311081
v 1.217477 0.735646 0.858833
v 1.765230 0.735646 0.311081
v 1.217477 1.831151 -0.784424
v 1.217477 1.831151 -0.236671
v 1.217477 2.378903 -0.784423
v 1.217477 2.378903 -0.236671
v 1.765230 1.831151 -0.784424
v 1.765230 1.831151 -0.236671
v 1.765230 2.378903 -0.784423
v 1.765230 2.378903 -0.236671
v 0.669725 0.735646 1.406586
v 1.217477 0.735646 1.406586
v 0.669725 2.926656 -0.784423
v 0.669725 2.926656 -0.236671
v 0.669725 3.474408 -0.784423
v 0.669725 3.474408 -0.236671
v 0.669725 3.474408 0.311081
v 0.669725 4.022161 -0.784423
v 0.669725 4.022161 -0.236671
v 0.669725 4.569913 -0.784423
v 0.669725 4.569913 -0.236671
v 0.669725 4.022161 0.311082
v 0.669725 4.022161 0.858834
v 0.669725 4.569912 0.311082
v 0.669725 4.569912 0.858834
v 1.217477 2.926656 -0.784423
v 1.217477 2.926656 -0.236671
v 1.217477 3.474408 -0.784423
v 1.217477 3.474408 -0.236671
v 1.765230 2.926656 -0.784423
v 1.765230 2.926656 -0.236671
v 1.765230 3.474408 -0.784423
v 1.765230 3.474408 -0.236671
v 1.217477 3.474408 0.311081
v 1.765230 3.474408 0.311081
v 1.217477 4.022161 -0.784423
v 1.217477 4.569913 -0.784423
v 1.765230 4.022161 -0.784423
v 1.765230 4.022161 -0.236671
v 1.765230 4.569913 -0.784423
v 1.765230 4.569913 -0.236671
v 1.217477 4.022161 0.311082
v 1.217477 4.022161 0.858834
v 1.217477 4.569912 0.858834
v 1.765230 4.022161 0.311082
v 1.765230 4.022161 0.858834
v 1.765230 4.569912 0.311082
v 1.765230 4.569912 0.858834
v 0.669725 4.569912 1.406586
v 1.217477 4.569912 1.406586
v 1.765230 4.569912 1.406586
v 0.669725 5.117666 -0.784423
v 0.669725 5.117666 -0.236671
v 0.669725 5.665419 -0.784423
v 0.669725 5.665419 -0.236670
v 0.669725 5.117666 0.311082
v 0.669725 5.117666 0.858834
v 0.669725 5.665418 0.311082
v 0.669725 5.665418 0.858834
v 0.669725 6.213171 -0.236670
v 0.669725 6.760923 -0.236670
v 0.669725 6.213171 0.311082
v 0.669725 6.213171 0.858834
v 0.669725 6.760923 0.311082
v 0.669725 6.760923 0.858834
v 1.217477 5.117666 -0.784423
v 1.217477 5.665419 -0.784423
v 1.217477 5.665419 -0.236670
v 1.765230 5.117666 -0.784423
v 1.765230 5.117666 -0.236671
v 1.765230 5.665419 -0.784423
v 1.765230 5.665419 -0.236670
v 1.765230 5.117666 0.311082
v 1.765230 5.117666 0.858834
v 1.765230 5.665418 0.311082
v 1.765230 5.665418 0.858834
v 1.217477 6.213171 -0.236670
v 1.217477 6.760923 -0.236670
v 1.765230 6.213171 -0.236670
v 1.765230 6.760923 -0.236670
v 1.765230 6.213171 0.311082
v 1.765230 6.213171 0.858834
v 1.765230 6.760923 0.311082
v 1.765230 6.760923 0.858834
v 0.669725 5.117665 1.406587
v 0.669725 5.665418 1.406587
v 0.669725 5.665418 1.954339
v 0.669725 6.213170 1.406587
v 0.669725 6.213170 1.954339
v 0.669725 6.760923 1.406587
v 0.669725 6.760922 1.954339
v 1.217477 5.117665 1.406587
v 1.217477 5.665418 1.406587
v 1.217477 5.665418 1.954339
v 1.765230 5.117665 1.406587
v 1.765230 5.665418 1.406587
v 1.765230 5.665418 1.954339
v 1.217477 6.213170 1.954339
v 1.217477 6.760922 1.954339
v 1.765230 6.213170 1.406587
v 1.765230 6.213170 1.954339
v 1.765230 6.760923 1.406587
v 1.765230 6.760922 1.954339
v 1.217477 7.308675 -0.236670
v 1.217477 7.856428 -0.236670
v 1.765230 7.308675 -0.236670
v 1.765230 7.856428 -0.236670
v 1.765230 7.308675 0.311082
v 1.765230 7.308675 0.858835
v 1.765230 7.856428 0.311082
v 1.765230 7.856428 0.858835
v 1.217477 8.404181 -0.236670
v 1.217477 8.951933 -0.236670
v 1.765230 8.404181 -0.236670
v 1.765230 8.951933 -0.236670
v 1.765230 8.404181 0.311082
v 1.765230 8.404180 0.858835
v 1.765230 8.951933 0.311082
v 1.765230 8.951932 0.858835
v 0.669725 7.308675 1.954339
v 1.217477 7.308675 1.954339
v 1.217477 7.856427 1.954339
v 1.765230 7.308675 1.406587
v 1.765230 7.308675 1.954339
v 1.765230 7.856427 1.406587
v 1.765230 7.856427 1.954339
v 1.217477 7.856427 2.502092
v 1.765230 7.856427 2.502092
v 1.217477 8.951932 1.954340
v 1.765230 8.404180 1.406587
v 1.765230 8.404180 1.954340
v 1.765230 8.951932 1.406587
v 1.765230 8.951932 1.954340
v 1.217477 8.404180 2.502092
v 1.217477 8.951932 2.502092
v 1.765230 8.404180 2.502092
v 1.765230 8.951932 2.502092
v 1.217477 9.499685 -0.236670
v 1.765230 9.499685 -0.236670
v 1.217477 9.499685 0.311082
v 1.217477 9.499685 0.858835
v 1.765230 9.499685 0.311082
v 1.765230 9.499685 0.858835
v 1.217477 9.499684 1.406587
v 1.217477 9.499684 1.954340
v 1.217477 10.047437 1.406587
v 1.217477 10.047437 1.954340
v 1.765230 9.499684 1.406587
v 1.765230 9.499684 1.954340
v 1.765230 10.047437 1.406587
v 1.765230 10.047437 1.954340
vt 0.489516 0.794503
vt 0.481105 0.795034
vt 0.485045 0.790564
vt 0.476634 0.791095
vt 0.480574 0.786624
vt 0.477166 0.799505
vt 0.468755 0.800036
vt 0.472695 0.795566
vt 0.485576 0.798974
vt 0.473226 0.803976
vt 0.464815 0.804507
vt 0.498458 0.802383
vt 0.497926 0.793972
vt 0.502397 0.797912
vt 0.524973 0.754266
vt 0.525505 0.762676
vt 0.521034 0.758737
vt 0.528913 0.749795
vt 0.529444 0.758205
vt 0.500806 0.717835
vt 0.492384 0.717527
vt 0.496749 0.713470
vt 0.492076 0.725949
vt 0.483654 0.725640
vt 0.488019 0.721583
vt 0.483042 0.638388
vt 0.481931 0.627040
vt 0.488160 0.632159
vt 0.491862 0.764801
vt 0.492393 0.773211
vt 0.487922 0.769272
vt 0.526476 0.550623
vt 0.527444 0.565955
vt 0.519294 0.558773
vt 0.546502 0.307207
vt 0.544477 0.286522
vt 0.555832 0.295852
vt 0.499742 0.755859
vt 0.500273 0.764270
vt 0.495802 0.760330
vt 0.492393 0.773211
vt 0.492924 0.781622
vt 0.488454 0.777682
vt 0.487391 0.760861
vt 0.483452 0.765332
vt 0.488985 0.786093
vt 0.489516 0.794503
vt 0.485045 0.790564
vt 0.442031 0.772023
vt 0.450441 0.771492
vt 0.446501 0.775963
vt 0.496864 0.777151
vt 0.497395 0.785562
vt 0.496441 0.721892
vt 0.535147 0.297877
vt 0.533122 0.277192
vt 0.496333 0.768741
vt 0.484514 0.782153
vt 0.441500 0.763612
vt 0.449910 0.763081
vt 0.445970 0.767552
vt 0.454381 0.767021
vt 0.491331 0.756390
vt 0.493456 0.790032
vt 0.505171 0.713778
vt 0.501115 0.709413
vt 0.476813 0.633269
vt 0.475702 0.621922
vt 0.488454 0.777682
vt 0.483983 0.773742
vt 0.513284 0.722509
vt 0.504863 0.722200
vt 0.509228 0.718144
vt 0.622745 0.490667
vt 0.621777 0.475335
vt 0.629927 0.482517
vt 0.546784 0.744651
vt 0.434151 0.780965
vt 0.542845 0.749121
vt 0.503107 0.290572
vt 0.501082 0.269886
vt 0.512437 0.279217
vt 0.479512 0.769803
vt 0.438091 0.776494
vt 0.438622 0.784904
vt 0.434151 0.780965
vt 0.442562 0.780434
vt 0.517341 0.726874
vt 0.508919 0.726565
vt 0.615563 0.498817
vt 0.614595 0.483485
vt 0.483346 0.734062
vt 0.474924 0.733753
vt 0.479289 0.729697
vt 0.474616 0.742175
vt 0.466194 0.741867
vt 0.470559 0.737810
vt 0.482729 0.750905
vt 0.474307 0.750597
vt 0.478672 0.746540
vt 0.569212 0.325868
vt 0.567187 0.305183
vt 0.578542 0.314513
vt 0.507621 0.746917
vt 0.508152 0.755328
vt 0.503681 0.751388
vt 0.500273 0.764270
vt 0.500804 0.772680
vt 0.496333 0.768741
vt 0.520415 0.669097
vt 0.519305 0.657750
vt 0.525534 0.662868
vt 0.515500 0.737976
vt 0.516032 0.746386
vt 0.511561 0.742446
vt 0.573262 0.367238
vt 0.571237 0.346553
vt 0.582592 0.355883
vt 0.478228 0.816327
vt 0.477697 0.807916
vt 0.482168 0.811856
vt 0.493987 0.798443
vt 0.485576 0.798974
vt 0.489516 0.794503
vt 0.503150 0.742978
vt 0.499211 0.747448
vt 0.504744 0.768209
vt 0.505275 0.776620
vt 0.511030 0.734036
vt 0.507090 0.738507
vt 0.481636 0.803445
vt 0.486107 0.807385
vt 0.490047 0.802914
vt 0.478981 0.738118
vt 0.514186 0.663979
vt 0.513076 0.652632
vt 0.512092 0.750857
vt 0.509746 0.780560
vt 0.501335 0.781091
vt 0.505275 0.776620
vt 0.470251 0.746232
vt 0.529975 0.766616
vt 0.529444 0.758205
vt 0.533915 0.762145
vt 0.515297 0.675326
vt 0.483038 0.742484
vt 0.580567 0.335198
vt 0.533384 0.753735
vt 0.537855 0.757674
vt 0.505806 0.785031
vt 0.497395 0.785562
vt 0.465886 0.750288
vt 0.457464 0.749980
vt 0.461829 0.745923
vt 0.473999 0.759018
vt 0.465577 0.758710
vt 0.469942 0.754653
vt 0.465269 0.767132
vt 0.456847 0.766823
vt 0.461212 0.762767
vt 0.532873 0.679333
vt 0.531763 0.667986
vt 0.537991 0.673105
vt 0.513154 0.767678
vt 0.513685 0.776089
vt 0.509214 0.772149
vt 0.523380 0.729034
vt 0.523911 0.737445
vt 0.519440 0.733505
vt 0.522637 0.691791
vt 0.521526 0.680444
vt 0.527755 0.685562
vt 0.512623 0.759268
vt 0.513154 0.767678
vt 0.508683 0.763739
vt 0.535095 0.702028
vt 0.533984 0.690681
vt 0.540213 0.695799
vt 0.509746 0.780560
vt 0.505275 0.776620
vt 0.518909 0.725094
vt 0.514970 0.729565
vt 0.508152 0.755328
vt 0.504212 0.759799
vt 0.509215 0.772149
vt 0.504744 0.768209
vt 0.469634 0.763075
vt 0.528866 0.696910
vt 0.461521 0.754345
vt 0.452791 0.762458
vt 0.457156 0.758402
vt 0.526644 0.674215
vt 0.539102 0.684452
vt 0.545331 0.689570
vt 0.500273 0.764270
vt 0.473382 0.775862
vt 0.464961 0.775553
vt 0.469326 0.771497
vt 0.493987 0.798443
vt 0.493456 0.790032
vt 0.497926 0.793972
vt 0.463753 0.787686
vt 0.464284 0.796097
vt 0.459813 0.792157
vt 0.600021 0.427269
vt 0.597996 0.406584
vt 0.609351 0.415914
vt 0.471632 0.778744
vt 0.472164 0.787155
vt 0.467693 0.783215
vt 0.497395 0.785562
vt 0.501866 0.789501
vt 0.468224 0.791626
vt 0.468755 0.800037
vt 0.476103 0.782684
vt 0.476634 0.791095
vt 0.477747 0.771805
vt 0.473691 0.767440
vt 0.588666 0.417939
vt 0.586641 0.397254
vt 0.468224 0.791626
vt 0.463753 0.787686
vt 0.472695 0.795566
vt 0.519971 0.741915
vt 0.478364 0.754962
vt 0.516408 0.686673
vt 0.460344 0.800568
vt 0.455874 0.796628
vt 0.464815 0.804507
vt 0.537855 0.757674
vt 0.537324 0.749264
vt 0.541795 0.753203
vt 0.541264 0.744793
vt 0.545734 0.748733
vt 0.478056 0.763384
vt 0.460904 0.771188
vt 0.584616 0.376568
vt 0.595971 0.385899
vt 0.529976 0.708257
vt 0.523747 0.703139
vt 0.482421 0.759327
vt 0.575286 0.387924
vt 0.487711 0.730005
vt 0.557857 0.316537
vt 0.504212 0.759799
vt 0.501335 0.781091
vt 0.520503 0.750326
vt 0.521034 0.758736
vt 0.516563 0.754797
vt 0.547553 0.712264
vt 0.546442 0.700917
vt 0.552671 0.706035
vt 0.528382 0.741384
vt 0.528913 0.749795
vt 0.524442 0.745855
vt 0.560010 0.722501
vt 0.558900 0.711154
vt 0.565129 0.716272
vt 0.524973 0.754266
vt 0.553782 0.717383
vt 0.551560 0.694688
vt 0.557789 0.699806
vt 0.564018 0.704925
vt 0.570247 0.710043
vt 0.622731 0.445930
vt 0.620706 0.425244
vt 0.632061 0.434575
vt 0.479512 0.769803
vt 0.480043 0.778213
vt 0.475572 0.774274
vt 0.549774 0.734959
vt 0.548663 0.723611
vt 0.554892 0.728730
vt 0.454381 0.767021
vt 0.454912 0.775432
vt 0.450441 0.771492
vt 0.543545 0.729840
vt 0.542434 0.718493
vt 0.450972 0.779902
vt 0.446502 0.775963
vt 0.447033 0.784373
vt 0.438622 0.784904
vt 0.442562 0.780434
vt 0.636111 0.475945
vt 0.634086 0.455260
vt 0.645441 0.464590
vt 0.490047 0.802914
vt 0.490578 0.811324
vt 0.486107 0.807385
vt 0.624756 0.466615
vt 0.455443 0.783842
vt 0.463854 0.783311
vt 0.459914 0.787782
vt 0.459383 0.779371
vt 0.467794 0.778840
vt 0.668151 0.483251
vt 0.666126 0.462565
vt 0.677481 0.471896
vt 0.490047 0.802914
vt 0.498458 0.802383
vt 0.494518 0.806854
vt 0.509746 0.780560
vt 0.510277 0.788970
vt 0.505806 0.785031
vt 0.525505 0.762676
vt 0.526036 0.771087
vt 0.521565 0.767147
vt 0.532322 0.736913
vt 0.532853 0.745324
vt 0.566239 0.727619
vt 0.571358 0.721390
vt 0.576296 0.715326
vt 0.656796 0.473920
vt 0.654771 0.453235
vt 0.522096 0.775558
vt 0.517625 0.771618
vt 0.541324 0.707146
vt 0.451503 0.788313
vt 0.455974 0.792253
vt 0.561121 0.733848
vt 0.517094 0.763207
vt 0.611376 0.436599
vt 0.480574 0.786624
vt 0.536205 0.713375
vt 0.479598 0.721275
vt 0.483963 0.717218
vt 0.517094 0.763207
vt 0.521565 0.767147
vt 0.509746 0.780560
vt 0.518156 0.780029
vt 0.514216 0.784499
vt 0.475233 0.725332
vt 0.513154 0.767678
vt 0.517625 0.771618
vt 0.481636 0.803445
vt 0.469286 0.808447
vt 0.493987 0.798443
vt 0.533384 0.753735
vt 0.534626 0.557805
vt 0.523792 0.288547
vt 0.445439 0.759142
vt 0.470584 0.628151
vt 0.438091 0.776494
vt 0.491752 0.281241
vt 0.512976 0.730930
vt 0.607413 0.491635
vt 0.561906 0.357908
vt 0.473757 0.812387
vt 0.509214 0.772149
vt 0.486107 0.807385
vt 0.507957 0.658861
vt 0.525505 0.762676
vt 0.509068 0.670208
vt 0.559882 0.337223
vt 0.501866 0.789501
vt 0.517625 0.771618
vt 0.527851 0.732974
vt 0.469017 0.779918
vt 0.489516 0.794503
vt 0.472695 0.795566
vt 0.577311 0.408609
vt 0.510179 0.681555
vt 0.533384 0.753735
vt 0.517519 0.698020
vt 0.563931 0.378593
vt 0.483983 0.773742
vt 0.458852 0.770961
vt 0.537316 0.724722
vt 0.443093 0.788844
vt 0.494518 0.806854
vt 0.613401 0.457285
vt 0.463323 0.774900
vt 0.493987 0.798443
vt 0.514216 0.784499
vt 0.529975 0.766616
vt 0.536793 0.740853
vt 0.484514 0.782153
vt 0.521034 0.758737
vt 0.513685 0.776089
vn 0.0000 -1.0000 0.0000
vn 0.0000 0.0000 -1.0000
vn -1.0000 -0.0000 0.0000
vn 1.0000 -0.0000 0.0000
vn 0.0000 -0.0000 1.0000
vn 0.0000 1.0000 0.0000
usemtl Material.003
s off
f 9/1/1 8/2/1 7/3/1
f 7/3/1 4/4/1 3/5/1
f 11/6/1 6/7/1 5/8/1
f 10/9/1 11/6/1 8/2/1
f 8/2/1 5/8/1 4/4/1
f 12/10/1 14/11/1 6/7/1
f 2/12/1 16/13/1 1/14/1
f 19/15/2 20/16/2 18/17/2
f 22/18/2 21/19/2 19/15/2
f 37/20/3 38/21/3 36/22/3
f 43/23/3 44/24/3 42/25/3
f 53/26/4 50/27/4 52/28/4
f 48/29/2 50/30/2 46/31/2
f 53/32/5 47/33/5 51/34/5
f 64/35/4 61/36/4 63/37/4
f 59/38/2 61/39/2 57/40/2
f 64/41/5 58/42/5 62/43/5
f 38/44/2 46/31/2 36/45/2
f 49/46/5 37/47/5 47/48/5
f 55/49/6 40/50/6 41/51/6
f 60/52/5 43/53/5 58/42/5
f 39/54/3 42/25/3 38/21/3
f 62/55/4 52/56/4 61/36/4
f 57/40/2 52/57/2 48/29/2
f 62/43/5 49/46/5 53/58/5
f 56/59/6 47/60/6 54/61/6
f 54/61/6 37/62/6 40/50/6
f 42/63/2 48/29/2 38/44/2
f 58/42/5 39/64/5 49/46/5
f 25/65/3 36/22/3 24/66/3
f 51/67/4 29/68/4 50/27/4
f 46/31/2 29/69/2 28/70/2
f 27/71/3 40/72/3 26/73/3
f 55/74/4 31/75/4 54/76/4
f 56/77/5 31/78/5 33/79/5
f 26/73/3 37/20/3 25/65/3
f 56/80/4 30/81/4 51/82/4
f 36/45/2 28/70/2 24/83/2
f 66/84/5 34/85/5 35/86/5
f 66/84/6 41/51/6 65/87/6
f 34/88/3 41/89/3 27/71/3
f 66/90/4 32/91/4 55/74/4
f 68/92/3 69/93/3 67/94/3
f 73/95/3 74/96/3 72/97/3
f 77/98/3 78/99/3 76/100/3
f 87/101/4 84/102/4 86/103/4
f 82/104/2 84/105/2 80/106/2
f 87/107/5 81/108/5 85/109/5
f 95/110/4 92/111/4 94/112/4
f 91/113/2 92/114/2 90/115/2
f 102/116/4 99/117/4 101/118/4
f 99/119/1 97/120/1 96/121/1
f 102/122/5 97/123/5 100/124/5
f 69/125/2 80/106/2 67/126/2
f 83/127/5 68/128/5 81/108/5
f 74/129/2 90/115/2 72/130/2
f 96/121/1 77/131/1 76/132/1
f 98/133/5 77/131/5 97/123/5
f 70/134/3 72/97/3 69/93/3
f 93/135/4 86/136/4 92/111/4
f 90/115/2 86/137/2 82/104/2
f 99/138/5 88/139/5 89/140/5
f 76/100/3 75/141/3 73/95/3
f 87/142/1 88/143/1 83/144/1
f 101/145/4 93/135/4 95/110/4
f 71/146/3 73/95/3 70/134/3
f 99/117/4 87/101/4 93/147/4
f 83/144/1 71/148/1 70/149/1
f 72/130/2 82/104/2 69/125/2
f 96/150/5 71/151/5 88/139/5
f 107/152/3 108/153/3 106/154/3
f 111/155/3 112/156/3 110/157/3
f 117/158/3 118/159/3 116/160/3
f 126/161/4 123/162/4 125/163/4
f 126/164/6 121/165/6 122/166/6
f 121/167/2 123/168/2 120/169/2
f 130/170/4 127/171/4 129/172/4
f 132/173/2 133/174/2 131/175/2
f 138/176/4 135/177/4 137/178/4
f 122/166/6 108/179/6 109/180/6
f 108/181/2 120/169/2 106/182/2
f 115/183/2 131/175/2 114/184/2
f 131/175/2 126/185/2 122/186/2
f 113/187/3 116/160/3 112/156/3
f 136/188/4 129/172/4 135/177/4
f 110/157/3 109/189/3 107/152/3
f 116/160/3 115/190/3 114/191/3
f 129/172/4 124/192/4 126/161/4
f 137/178/4 133/193/4 134/194/4
f 112/156/3 114/191/3 109/189/3
f 135/177/4 126/161/4 133/193/4
f 114/184/2 122/186/2 109/195/2
f 143/196/3 144/197/3 142/198/3
f 150/199/1 148/200/1 147/201/1
f 150/202/5 146/203/5 149/204/5
f 157/205/4 154/206/4 156/207/4
f 157/208/5 152/209/5 155/210/5
f 147/201/1 141/211/1 140/212/1
f 147/213/5 139/214/5 146/203/5
f 153/215/5 143/216/5 152/209/5
f 141/217/3 142/198/3 140/218/3
f 155/219/4 150/220/4 154/206/4
f 155/210/5 148/221/5 151/222/5
f 152/209/5 141/223/5 148/221/5
f 75/141/3 106/154/3 74/96/3
f 124/192/4 94/112/4 123/162/4
f 120/169/2 94/224/2 91/113/2
f 79/225/3 110/157/3 78/99/3
f 128/226/4 101/145/4 127/171/4
f 78/99/3 107/152/3 75/141/3
f 127/171/4 95/110/4 124/192/4
f 106/182/2 91/113/2 74/129/2
f 149/204/5 104/227/5 105/228/5
f 146/203/5 103/229/5 104/227/5
f 102/230/1 104/231/1 98/232/1
f 98/232/1 103/233/1 79/234/1
f 139/235/3 113/187/3 111/155/3
f 142/198/3 119/236/3 117/158/3
f 150/220/4 128/237/4 130/238/4
f 156/239/4 136/188/4 138/176/4
f 140/218/3 117/158/3 113/187/3
f 154/240/4 130/170/4 136/188/4
f 103/241/3 111/155/3 79/225/3
f 149/242/4 102/116/4 128/237/4
f 45/243/3 67/94/3 44/24/3
f 85/244/4 63/37/4 84/102/4
f 80/106/2 63/245/2 59/38/2
f 85/109/5 60/52/5 64/41/5
f 81/108/5 45/246/5 60/52/5
f 159/247/2 160/248/2 158/249/2
f 165/250/4 162/251/4 164/252/4
f 167/253/2 168/254/2 166/255/2
f 173/256/4 170/257/4 172/258/4
f 166/255/2 161/259/2 159/247/2
f 171/260/4 164/252/4 170/257/4
f 164/252/4 160/261/4 161/262/4
f 172/258/4 168/263/4 169/264/4
f 170/257/4 161/262/4 168/263/4
f 180/265/4 177/266/4 179/267/4
f 180/268/5 175/269/5 178/270/5
f 187/271/4 184/272/4 186/273/4
f 191/274/5 188/275/5 190/276/5
f 185/277/4 179/278/4 184/272/4
f 190/276/5 181/279/5 182/280/5
f 180/281/1 181/282/1 176/283/1
f 191/284/4 185/285/4 187/286/4
f 191/287/6 183/288/6 189/289/6
f 190/290/4 180/265/4 185/285/4
f 197/291/6 194/292/6 195/293/6
f 196/294/6 192/295/6 194/292/6
f 205/296/4 202/297/4 204/298/4
f 205/299/6 200/300/6 201/301/6
f 200/302/2 202/303/2 198/304/2
f 205/305/5 199/306/5 203/307/5
f 192/308/2 169/309/2 167/253/2
f 197/310/4 172/258/4 196/311/4
f 196/311/4 169/264/4 193/312/4
f 203/313/4 186/314/4 202/297/4
f 203/307/5 183/315/5 187/316/5
f 179/278/4 163/317/4 165/250/4
f 186/273/4 171/260/4 173/256/4
f 184/272/4 165/250/4 171/260/4
f 202/318/6 195/293/6 198/319/6
f 202/320/4 173/256/4 197/310/4
f 158/249/2 134/321/2 132/173/2
f 163/317/4 137/178/4 162/251/4
f 162/251/4 134/194/4 160/261/4
f 178/322/4 156/207/4 177/266/4
f 178/270/5 153/215/5 157/208/5
f 175/269/5 145/323/5 153/215/5
f 177/324/4 138/176/4 163/317/4
f 42/25/3 19/325/3 18/326/3
f 59/327/4 20/16/4 21/328/4
f 80/329/6 22/330/6 67/331/6
f 44/24/3 22/332/3 19/325/3
f 80/333/4 21/328/4 23/334/4
f 9/1/1 10/9/1 8/2/1
f 7/3/1 8/2/1 4/4/1
f 11/6/1 12/10/1 6/7/1
f 10/9/1 13/335/1 11/6/1
f 8/2/1 11/6/1 5/8/1
f 12/10/1 15/336/1 14/11/1
f 2/12/1 17/337/1 16/13/1
f 19/15/2 21/19/2 20/16/2
f 22/18/2 23/338/2 21/19/2
f 37/20/3 39/54/3 38/21/3
f 43/23/3 45/243/3 44/24/3
f 53/26/4 51/67/4 50/27/4
f 48/29/2 52/57/2 50/30/2
f 53/32/5 49/339/5 47/33/5
f 64/35/4 62/55/4 61/36/4
f 59/38/2 63/245/2 61/39/2
f 64/41/5 60/52/5 58/42/5
f 38/44/2 48/29/2 46/31/2
f 49/46/5 39/64/5 37/47/5
f 55/49/6 54/61/6 40/50/6
f 60/52/5 45/246/5 43/53/5
f 39/54/3 43/23/3 42/25/3
f 62/55/4 53/340/4 52/56/4
f 57/40/2 61/39/2 52/57/2
f 62/43/5 58/42/5 49/46/5
f 56/59/6 51/341/6 47/60/6
f 54/61/6 47/60/6 37/62/6
f 42/63/2 57/40/2 48/29/2
f 58/42/5 43/53/5 39/64/5
f 25/65/3 37/20/3 36/22/3
f 51/67/4 30/342/4 29/68/4
f 46/31/2 50/30/2 29/69/2
f 27/71/3 41/89/3 40/72/3
f 55/74/4 32/91/4 31/75/4
f 56/77/5 54/343/5 31/78/5
f 26/73/3 40/72/3 37/20/3
f 56/80/4 33/344/4 30/81/4
f 36/45/2 46/31/2 28/70/2
f 66/84/5 65/87/5 34/85/5
f 66/84/6 55/49/6 41/51/6
f 34/88/3 65/345/3 41/89/3
f 66/90/4 35/346/4 32/91/4
f 68/92/3 70/134/3 69/93/3
f 73/95/3 75/141/3 74/96/3
f 77/98/3 79/225/3 78/99/3
f 87/101/4 85/244/4 84/102/4
f 82/104/2 86/137/2 84/105/2
f 87/107/5 83/127/5 81/108/5
f 95/110/4 93/135/4 92/111/4
f 91/113/2 94/224/2 92/114/2
f 102/116/4 100/347/4 99/117/4
f 99/119/1 100/348/1 97/120/1
f 102/122/5 98/133/5 97/123/5
f 69/125/2 82/104/2 80/106/2
f 83/127/5 70/349/5 68/128/5
f 74/129/2 91/113/2 90/115/2
f 96/121/1 97/120/1 77/131/1
f 98/133/5 79/350/5 77/131/5
f 70/134/3 73/95/3 72/97/3
f 93/135/4 87/351/4 86/136/4
f 90/115/2 92/114/2 86/137/2
f 99/138/5 96/150/5 88/139/5
f 76/100/3 78/99/3 75/141/3
f 87/142/1 89/352/1 88/143/1
f 101/145/4 99/353/4 93/135/4
f 71/146/3 76/100/3 73/95/3
f 99/117/4 89/354/4 87/101/4
f 83/144/1 88/143/1 71/148/1
f 72/130/2 90/115/2 82/104/2
f 96/150/5 76/355/5 71/151/5
f 107/152/3 109/189/3 108/153/3
f 111/155/3 113/187/3 112/156/3
f 117/158/3 119/236/3 118/159/3
f 126/161/4 124/192/4 123/162/4
f 126/164/6 125/356/6 121/165/6
f 121/167/2 125/357/2 123/168/2
f 130/170/4 128/226/4 127/171/4
f 132/173/2 134/321/2 133/174/2
f 138/176/4 136/188/4 135/177/4
f 122/166/6 121/165/6 108/179/6
f 108/181/2 121/167/2 120/169/2
f 115/183/2 132/173/2 131/175/2
f 131/175/2 133/174/2 126/185/2
f 113/187/3 117/158/3 116/160/3
f 136/188/4 130/170/4 129/172/4
f 110/157/3 112/156/3 109/189/3
f 116/160/3 118/159/3 115/190/3
f 129/172/4 127/171/4 124/192/4
f 137/178/4 135/177/4 133/193/4
f 112/156/3 116/160/3 114/191/3
f 135/177/4 129/172/4 126/161/4
f 114/184/2 131/175/2 122/186/2
f 143/196/3 145/358/3 144/197/3
f 150/199/1 151/359/1 148/200/1
f 150/202/5 147/213/5 146/203/5
f 157/205/4 155/219/4 154/206/4
f 157/208/5 153/215/5 152/209/5
f 147/201/1 148/200/1 141/211/1
f 147/213/5 140/360/5 139/214/5
f 153/215/5 145/323/5 143/216/5
f 141/217/3 143/196/3 142/198/3
f 155/219/4 151/361/4 150/220/4
f 155/210/5 152/209/5 148/221/5
f 152/209/5 143/216/5 141/223/5
f 75/141/3 107/152/3 106/154/3
f 124/192/4 95/110/4 94/112/4
f 120/169/2 123/168/2 94/224/2
f 79/225/3 111/155/3 110/157/3
f 128/226/4 102/362/4 101/145/4
f 78/99/3 110/157/3 107/152/3
f 127/171/4 101/145/4 95/110/4
f 106/182/2 120/169/2 91/113/2
f 149/204/5 146/203/5 104/227/5
f 146/203/5 139/214/5 103/229/5
f 102/230/1 105/363/1 104/231/1
f 98/232/1 104/231/1 103/233/1
f 139/235/3 140/218/3 113/187/3
f 142/198/3 144/197/3 119/236/3
f 150/220/4 149/242/4 128/237/4
f 156/239/4 154/240/4 136/188/4
f 140/218/3 142/198/3 117/158/3
f 154/240/4 150/364/4 130/170/4
f 103/241/3 139/235/3 111/155/3
f 149/242/4 105/365/4 102/116/4
f 45/243/3 68/92/3 67/94/3
f 85/244/4 64/35/4 63/37/4
f 80/106/2 84/105/2 63/245/2
f 85/109/5 81/108/5 60/52/5
f 81/108/5 68/128/5 45/246/5
f 159/247/2 161/259/2 160/248/2
f 165/250/4 163/317/4 162/251/4
f 167/253/2 169/309/2 168/254/2
f 173/256/4 171/260/4 170/257/4
f 166/255/2 168/254/2 161/259/2
f 171/260/4 165/250/4 164/252/4
f 164/252/4 162/251/4 160/261/4
f 172/258/4 170/257/4 168/263/4
f 170/257/4 164/252/4 161/262/4
f 180/265/4 178/322/4 177/266/4
f 180/268/5 176/366/5 175/269/5
f 187/271/4 185/277/4 184/272/4
f 191/274/5 189/367/5 188/275/5
f 185/277/4 180/368/4 179/278/4
f 190/276/5 188/275/5 181/279/5
f 180/281/1 182/369/1 181/282/1
f 191/284/4 190/290/4 185/285/4
f 191/287/6 187/370/6 183/288/6
f 190/290/4 182/371/4 180/265/4
f 197/291/6 196/294/6 194/292/6
f 196/294/6 193/372/6 192/295/6
f 205/296/4 203/313/4 202/297/4
f 205/299/6 204/373/6 200/300/6
f 200/302/2 204/374/2 202/303/2
f 205/305/5 201/375/5 199/306/5
f 192/308/2 193/376/2 169/309/2
f 197/310/4 173/256/4 172/258/4
f 196/311/4 172/258/4 169/264/4
f 203/313/4 187/286/4 186/314/4
f 203/307/5 199/306/5 183/315/5
f 179/278/4 177/324/4 163/317/4
f 186/273/4 184/272/4 171/260/4
f 184/272/4 179/278/4 165/250/4
f 202/318/6 197/291/6 195/293/6
f 202/320/4 186/273/4 173/256/4
f 158/249/2 160/248/2 134/321/2
f 163/317/4 138/176/4 137/178/4
f 162/251/4 137/178/4 134/194/4
f 178/322/4 157/205/4 156/207/4
f 178/270/5 175/269/5 153/215/5
f 175/269/5 174/377/5 145/323/5
f 177/324/4 156/239/4 138/176/4
f 42/25/3 44/24/3 19/325/3
f 59/327/4 57/378/4 20/16/4
f 80/329/6 23/379/6 22/330/6
f 44/24/3 67/94/3 22/332/3
f 80/333/4 59/327/4 21/328/4
