# 3ds Max Wavefront OBJ Exporter v0.99 - (c)2007 guruware
# File Created: 26.03.2022 17:40:30

mtllib CuerpoCarro.mtl

#
# object Cuerpo_carro
#

v  0.4917 2.1248 1.0500
v  0.9759 2.1248 1.0000
v  1.0074 2.1115 0.9750
v  0.0074 2.1226 0.9762
v  0.0074 2.1248 1.0650
v  -0.9613 0.3748 1.0000
v  -0.9468 0.3348 1.0256
v  -0.6852 0.4473 1.4981
v  -0.6707 0.4998 1.5250
v  -0.4769 1.6123 1.0500
v  -0.9613 1.5373 1.0000
v  -0.9129 1.5286 1.0141
v  -0.4527 1.6036 1.0616
v  0.6856 1.1886 1.5000
v  0.9762 1.5373 1.0000
v  0.9278 1.5286 1.0141
v  0.6517 1.1973 1.4891
v  0.6856 0.4998 1.5250
v  0.9762 0.3748 1.0000
v  0.9617 0.4273 1.0256
v  0.7001 0.5398 1.4981
v  -0.9926 -2.0252 0.9250
v  -0.9926 -2.1252 0.6625
v  -0.9623 -2.0752 0.9500
v  -0.9613 -0.7877 1.0000
v  -0.9926 0.3748 0.9750
v  0.6856 -0.1889 1.5000
v  0.9762 -0.7877 1.0000
v  0.9617 -0.7115 1.0256
v  0.7001 -0.1726 1.4756
v  -0.6852 0.5398 1.4981
v  -0.9468 0.4273 1.0256
v  0.0074 1.6373 1.0650
v  0.0074 1.6286 1.0759
v  1.0074 0.9592 0.9750
v  1.0074 0.3748 0.9750
v  1.0074 0.3748 0.6625
v  1.0074 1.0220 0.7625
v  1.0074 -2.0252 0.9250
v  1.0074 -2.1252 0.6625
v  1.0074 -1.4920 0.7625
v  1.0074 -1.4252 0.9375
v  -0.9926 -0.9752 0.9469
v  -0.9926 0.3748 0.6625
v  -0.9926 -1.0818 0.7625
v  -0.9926 2.1115 0.9750
v  -0.9926 2.1748 0.6625
v  -0.9926 1.5245 0.7625
v  -0.9926 1.5873 0.9750
v  -0.9534 -2.1028 0.6798
v  -0.9276 -2.0603 0.9242
v  0.9773 -2.0752 0.9500
v  -0.4926 -2.2252 0.6625
v  -0.5284 -2.1878 0.6798
v  -0.8926 2.1748 0.6625
v  -0.9926 2.1748 0.6104
v  1.0074 0.3748 0.4521
v  1.0074 0.8592 0.4521
v  1.0074 -1.0818 0.7625
v  1.0074 -0.8768 0.4521
v  -0.4774 -2.1252 1.0000
v  -0.5155 -2.1028 0.9317
v  0.4924 -2.1252 1.0000
v  0.5305 -2.1028 0.9317
v  0.9427 -2.0603 0.9242
v  0.9683 -2.1028 0.6798
v  0.5433 -2.1878 0.6798
v  0.5074 -2.2252 0.6625
v  1.0074 1.5873 0.9750
v  1.0074 -0.9752 0.9469
v  -0.9602 2.1248 1.0000
v  -0.6707 -0.1889 1.5000
v  -0.6852 -0.1726 1.4756
v  -0.9468 -0.7115 1.0256
v  -0.6707 1.1886 1.5000
v  -0.9468 1.4736 1.0256
v  -0.6852 1.1597 1.4756
v  -0.9468 1.0159 1.0256
v  -0.9468 1.2120 1.0256
v  0.7001 0.4473 1.4981
v  0.9617 0.3348 1.0256
v  0.7001 1.1597 1.4756
v  0.9617 1.4736 1.0256
v  1.0074 2.1748 0.6104
v  0.9074 2.1748 0.6625
v  1.0074 2.1748 0.6625
v  -0.9926 0.3748 0.4521
v  -0.9926 -0.8768 0.4521
v  -0.9926 -1.4252 0.9375
v  -0.9926 -1.4920 0.7625
v  -0.9926 1.0220 0.7625
v  -0.9926 0.9592 0.9750
v  1.0074 1.5245 0.7625
v  -0.6852 1.0047 1.4812
v  -0.6852 0.8885 1.4855
v  0.4918 1.6123 1.0500
v  0.4676 1.6036 1.0616
v  -0.6368 1.1973 1.4891
v  -0.4764 2.1248 1.0500
v  0.0074 2.1748 0.6625
v  -0.9926 0.8592 0.4521
v  1.0074 1.6873 0.4521
v  1.0074 2.1748 0.4521
v  -0.9926 2.1748 0.4521
v  -0.9926 1.6873 0.4521
v  0.4918 -0.8377 1.0500
v  0.3465 1.2636 1.5500
v  0.0074 1.2886 1.5650
v  0.0074 0.4998 1.5900
v  0.3465 0.4998 1.5750
v  0.0074 -0.2389 1.5650
v  -0.3316 -0.2389 1.5500
v  -0.3147 -0.2539 1.5365
v  0.0074 -0.2539 1.5515
v  -0.6368 -0.2039 1.4890
v  0.0074 -2.1402 1.0000
v  0.0074 -0.8377 1.0650
v  -0.4769 -0.8377 1.0500
v  -0.3316 0.4998 1.5750
v  0.3465 -0.2389 1.5500
v  0.3296 -0.2539 1.5365
v  0.6517 -0.2039 1.4890
v  0.9278 -0.7727 1.0140
v  0.3296 1.2723 1.5366
v  0.0074 1.2973 1.5509
v  -0.9129 -0.7727 1.0140
v  0.4676 -0.8227 1.0615
v  0.0074 -0.8227 1.0765
v  -0.4527 -0.8227 1.0615
v  -0.3316 1.2636 1.5500
v  -0.3147 1.2723 1.5366
v  0.0074 -2.2402 0.6625
v  -0.9455 -0.7046 1.0279
v  -0.9455 0.3312 1.0279
v  0.9571 0.3223 1.0336
v  0.9571 -0.6876 1.0336
v  -0.9455 0.4321 1.0279
v  -0.9455 1.4679 1.0279
v  0.9571 1.4537 1.0336
v  0.9571 0.4438 1.0336
v  -0.6046 1.2056 1.4788
v  -0.8669 1.5203 1.0276
v  0.8817 1.5203 1.0276
v  0.6195 1.2056 1.4788
v  -0.4297 1.5953 1.0727
v  0.4446 1.5953 1.0727
v  0.0074 1.6203 1.0863
v  -0.2986 -0.2671 1.5238
v  0.0074 -0.2671 1.5381
v  0.4446 -0.8075 1.0726
v  0.0074 -0.8075 1.0868
v  0.8817 -0.7600 1.0274
v  -0.4297 -0.8075 1.0726
v  -0.8669 -0.7600 1.0274
v  0.0074 1.3056 1.5375
v  -0.2986 1.2806 1.5240
v  0.3134 1.2806 1.5240
v  -0.6046 -0.2196 1.4787
v  0.3134 -0.2671 1.5238
v  0.6195 -0.2196 1.4787
v  -0.6865 0.4425 1.4957
v  -0.6865 0.5434 1.4957
v  -0.6865 1.1571 1.4734
v  -0.6865 -0.1711 1.4734
v  0.7046 0.4308 1.4897
v  0.7046 1.1507 1.4680
v  0.7046 0.5524 1.4897
v  0.7046 -0.1675 1.4680
v  -0.6865 0.8886 1.4832
v  -1.0426 -0.8768 0.4271
v  -1.0426 -1.0818 0.7375
v  -1.0426 -1.4920 0.7375
v  1.0574 0.8592 0.4271
v  1.0574 1.0220 0.7375
v  1.0574 1.5245 0.7375
v  1.0574 1.6873 0.4271
v  1.0574 -1.0818 0.7375
v  1.0574 -0.8768 0.4271
v  1.0574 -1.4920 0.7375
v  -1.0426 -0.9383 0.4504
v  -1.0426 -1.1126 0.7142
v  -1.0426 -1.4612 0.7142
v  -0.9676 -0.8768 0.3000
v  1.0574 -1.1126 0.7142
v  1.0574 -0.9383 0.4504
v  1.0574 -1.4612 0.7142
v  0.9824 -0.8768 0.3000
v  1.0574 1.4868 0.7220
v  1.0574 1.6252 0.4426
v  1.0574 0.9213 0.4426
v  1.0574 1.0597 0.7220
v  0.9824 1.6873 0.3000
v  0.9824 0.8592 0.3000
v  -1.0426 0.8592 0.4271
v  -1.0426 0.9213 0.4504
v  -0.9676 0.8592 0.3000
v  -0.9676 2.1748 0.3000
v  -0.9676 1.6873 0.3000
v  1.0074 -2.1252 0.4021
v  0.9824 -2.1252 0.3000
v  0.9824 -1.6971 0.3000
v  1.0074 -1.6971 0.4521
v  0.9824 0.3748 0.3000
v  -0.9676 0.3748 0.3000
v  0.0074 -2.3752 0.6469
v  0.4575 -2.3602 0.6469
v  0.9524 2.2748 0.3568
v  0.9824 2.1748 0.3000
v  0.0074 2.2748 0.3568
v  0.0074 2.1748 0.3000
v  -0.8701 2.1748 0.3000
v  -0.9376 2.2748 0.3568
v  0.9075 -2.2602 0.6469
v  0.0074 -2.2252 0.3000
v  0.4949 -2.2252 0.3000
v  0.4575 -2.3602 0.3656
v  0.0074 -2.3752 0.3656
v  0.8849 2.1748 0.3000
v  -0.4801 -2.2252 0.3000
v  -0.4426 -2.3602 0.3656
v  -0.8926 -2.2602 0.3656
v  -0.9676 -2.1252 0.3000
v  0.9075 -2.2752 0.4125
v  0.4575 -2.3752 0.4125
v  0.9075 -2.2602 0.3656
v  0.0074 -2.3902 0.4125
v  -0.8926 -2.2752 0.4125
v  -0.4426 -2.3752 0.4125
v  1.0074 -2.1252 0.6104
v  0.9075 -2.2752 0.6000
v  -0.8926 -2.2602 0.6469
v  -0.4426 -2.3602 0.6469
v  -0.9926 -2.1252 0.4021
v  -0.9926 -2.1252 0.6104
v  -0.8926 -2.2752 0.6000
v  -0.4426 -2.3752 0.6000
v  0.0074 -2.3902 0.6000
v  0.4575 -2.3752 0.6000
v  -0.9376 2.2748 0.6306
v  0.9524 2.2748 0.6306
v  0.0074 2.2748 0.6306
v  -0.9926 -1.6971 0.4521
v  -0.9676 -1.6971 0.3000
v  -1.0426 1.0220 0.7375
v  -1.0426 1.5245 0.7375
v  1.0574 -1.6971 0.4271
v  -1.0426 -1.6971 0.4271
v  -1.0426 1.6873 0.4271
v  -1.0426 -1.6355 0.4504
v  1.0574 -1.6355 0.4504
v  -1.0426 1.6252 0.4504
v  -1.0426 1.4868 0.7142
v  -1.0426 1.0597 0.7142
v  0.7874 1.6873 0.3000
v  -0.7726 1.6873 0.3000
v  0.0074 1.6873 0.3000
v  -0.4801 0.3748 0.3000
v  0.0074 0.3748 0.3000
v  0.0074 -0.9752 0.3000
v  -0.4801 -0.9752 0.3000
v  0.4949 0.3748 0.3000
v  0.4949 -0.9752 0.3000
v  -0.4801 -1.5752 0.3000
v  0.0074 -1.5752 0.3000
v  0.4949 -1.5752 0.3000
v  -0.6994 0.8592 0.3000
v  0.7143 0.8592 0.3000
v  0.0074 0.8592 0.3000
# 268 vertices

vn 0.0009 0.9931 -0.1174
vn -0.8742 -0.0066 0.4855
vn -0.1696 0.5263 0.8332
vn 0.0233 0.8136 0.5810
vn 0.8755 0.0065 0.4831
vn -0.8784 -0.4466 0.1701
vn -0.7707 -0.0129 0.6371
vn 0.8610 -0.0069 0.5086
vn -0.8755 0.0065 0.4831
vn -0.0602 0.7573 0.6503
vn 1.0000 -0.0000 -0.0000
vn -1.0000 -0.0000 0.0000
vn 0.4572 -0.8831 0.1054
vn 0.8795 -0.4447 0.1694
vn -0.0990 -0.4952 0.8631
vn 0.0000 1.0000 0.0000
vn -0.7057 -0.6657 0.2425
vn 0.0723 -0.9283 -0.3648
vn 0.0990 -0.4952 0.8631
vn -0.0723 -0.9283 -0.3647
vn -0.4572 -0.8831 0.1057
vn 0.7056 -0.6659 0.2423
vn 0.6247 -0.0000 0.7809
vn 0.6209 0.0003 0.7839
vn 0.7711 -0.0129 0.6366
vn -0.6225 0.0002 0.7826
vn -0.8641 -0.0183 0.5029
vn -0.8610 -0.0069 0.5086
vn -0.8699 -0.0000 0.4933
vn -0.8625 0.0068 0.5061
vn 0.8641 -0.0183 0.5029
vn 0.8742 -0.0066 0.4855
vn 0.8699 -0.0000 0.4933
vn 0.8625 0.0068 0.5061
vn 0.8680 0.0180 0.4962
vn -0.8680 0.0180 0.4962
vn 0.1696 0.5263 0.8332
vn -0.0233 0.8136 0.5810
vn 0.0602 0.7573 0.6503
vn -0.0009 0.9931 -0.1174
vn -0.0055 0.9834 0.1814
vn 0.0055 0.9834 0.1814
vn 0.3896 -0.6937 0.6057
vn 0.5579 -0.1351 0.8188
vn 0.0902 -0.2539 0.9630
vn 0.2288 -0.4483 0.8641
vn 0.1863 0.6103 0.7699
vn 0.0000 0.5260 0.8505
vn 0.0000 -0.0008 1.0000
vn 0.0969 -0.0005 0.9953
vn 0.0000 -0.3776 0.9260
vn -0.1386 -0.4545 0.8799
vn -0.1213 -0.7505 0.6496
vn 0.0000 -0.6961 0.7179
vn -0.4799 -0.2718 0.8342
vn -0.1246 -0.7258 0.6765
vn 0.0515 0.7388 0.6719
vn 0.0000 0.7401 0.6724
vn 0.0000 0.4093 0.9124
vn 0.1147 0.2927 0.9493
vn -0.0515 0.7389 0.6719
vn -0.1147 0.2927 0.9493
vn -0.2288 -0.4483 0.8641
vn 0.0000 -0.0443 0.9990
vn 0.0000 -0.3368 0.9416
vn -0.0902 -0.2539 0.9630
vn -0.0969 -0.0005 0.9953
vn -0.5635 0.0005 0.8261
vn 0.1386 -0.4545 0.8799
vn 0.4799 -0.2718 0.8342
vn 0.5635 0.0005 0.8261
vn 0.2703 0.7133 0.6466
vn 0.5082 0.1397 0.8498
vn 0.1213 -0.7505 0.6496
vn -0.3890 -0.6940 0.6058
vn -0.5576 -0.1351 0.8190
vn -0.2707 0.7147 0.6449
vn -0.5070 0.1399 0.8505
vn 0.1246 -0.7258 0.6765
vn 0.0869 -0.5346 0.8406
vn 0.1718 0.9263 0.3354
vn 0.0000 0.8681 0.4963
vn -0.0869 -0.5346 0.8406
vn 0.0823 -0.5150 0.8532
vn 0.0000 -0.5787 0.8155
vn -0.0823 -0.5150 0.8532
vn -0.1863 0.6103 0.7699
vn -0.4685 0.3787 0.7982
vn 0.4685 0.3787 0.7982
vn 0.1376 0.9107 0.3895
vn -0.1718 0.9263 0.3354
vn -0.1376 0.9107 0.3895
vn 0.0000 -0.9586 0.2847
vn 0.0292 -0.9582 0.2846
vn -0.0292 -0.9582 0.2846
vn 0.0000 -1.0000 0.0000
vn -0.1731 0.5181 0.8376
vn 0.1731 0.5181 0.8376
vn 0.0623 0.7560 0.6515
vn -0.0623 0.7560 0.6515
vn -0.0872 -0.6815 0.7266
vn 0.0000 -0.6773 0.7357
vn 0.0806 -0.5752 0.8140
vn 0.0000 -0.6013 0.7990
vn 0.1154 -0.5399 0.8338
vn -0.0806 -0.5752 0.8140
vn -0.1154 -0.5399 0.8338
vn 0.0000 0.8427 0.5384
vn -0.1377 0.8486 0.5108
vn 0.1377 0.8486 0.5108
vn 0.1943 0.8843 0.4245
vn -0.1943 0.8843 0.4245
vn -0.1561 -0.6958 0.7011
vn 0.0872 -0.6815 0.7266
vn 0.1561 -0.6958 0.7011
vn -0.8642 -0.0183 0.5029
vn -0.8609 -0.0069 0.5087
vn 0.8609 -0.0069 0.5087
vn -0.8707 -0.0040 0.4918
vn -0.8658 -0.0038 0.5004
vn -0.8647 -0.0105 0.5022
vn -0.8686 -0.0115 0.4953
vn 0.8707 -0.0040 0.4918
vn 0.8686 -0.0115 0.4953
vn 0.8647 -0.0105 0.5022
vn 0.8658 -0.0038 0.5004
vn -0.8668 0.0038 0.4986
vn -0.8718 0.0038 0.4898
vn -0.8708 0.0112 0.4915
vn -0.8686 0.0123 0.4953
vn -0.8669 0.0109 0.4984
vn 0.8718 0.0038 0.4898
vn 0.8668 0.0038 0.4986
vn 0.8669 0.0109 0.4984
vn 0.8708 0.0112 0.4915
vn 0.0000 0.7869 0.6171
vn 0.1231 0.7499 0.6500
vn -0.1231 0.7499 0.6500
vn -0.1294 0.6856 0.7164
vn 0.1294 0.6856 0.7164
vn -0.2657 0.8044 0.5314
vn -0.4472 -0.0000 0.8944
vn 0.2262 -0.8626 0.4524
vn 0.2262 0.8626 0.4524
vn 0.4472 -0.0000 0.8944
vn 0.2657 0.8044 0.5314
vn -0.8457 -0.1889 -0.4991
vn 0.8457 -0.1889 -0.4991
vn 0.8543 -0.1260 -0.5042
vn 0.8543 0.1260 -0.5042
vn -0.8460 0.1871 -0.4993
vn -0.9712 0.2298 -0.0625
vn -0.6153 0.2514 -0.7471
vn -0.4592 0.0749 -0.8852
vn -0.7994 0.5873 0.1263
vn 0.9540 -0.2808 -0.1046
vn 0.6271 -0.2635 -0.7330
vn 0.4524 -0.0699 -0.8891
vn 0.8218 -0.5503 0.1474
vn 0.9967 -0.0000 -0.0814
vn 0.6472 -0.0000 -0.7623
vn 0.4606 -0.0798 -0.8840
vn 0.7994 -0.5873 0.1263
vn -0.9967 -0.0000 -0.0814
vn -0.6472 -0.0000 -0.7623
vn -0.4588 0.0750 -0.8854
vn -0.8201 0.5517 0.1520
vn 0.0000 -0.1156 0.9933
vn 0.0000 -0.6421 0.7666
vn 0.0818 -0.6514 0.7543
vn 0.1995 -0.3284 0.9232
vn 0.4459 0.7903 -0.4201
vn 0.9712 0.2298 -0.0625
vn 0.6153 0.2514 -0.7471
vn 0.0000 0.8642 -0.5031
vn 0.0000 0.2553 -0.9669
vn -0.4459 0.7903 -0.4201
vn 0.4230 -0.6187 0.6620
vn 0.7952 -0.4920 0.3543
vn 0.0000 -0.2145 -0.9767
vn 0.0342 -0.2449 -0.9689
vn 0.0907 -0.7618 -0.6414
vn 0.0000 -0.7528 -0.6582
vn -0.0342 -0.2449 -0.9689
vn -0.0907 -0.7618 -0.6414
vn -0.4520 -0.7065 -0.5446
vn -0.6271 -0.2635 -0.7330
vn 0.5444 -0.8287 -0.1299
vn 0.1231 -0.9807 -0.1518
vn 0.4520 -0.7065 -0.5446
vn 0.0000 -0.9881 -0.1537
vn -0.5444 -0.8287 -0.1299
vn -0.1231 -0.9807 -0.1518
vn 0.9546 -0.2968 0.0238
vn 0.5429 -0.8330 0.1063
vn -0.1995 -0.3284 0.9232
vn -0.7953 -0.4920 0.3542
vn -0.4230 -0.6187 0.6620
vn -0.0818 -0.6514 0.7543
vn -0.9540 -0.2808 -0.1046
vn -0.9546 -0.2968 0.0238
vn -0.5429 -0.8330 0.1063
vn -0.1231 -0.9807 0.1518
vn 0.0000 -0.9881 0.1537
vn 0.1231 -0.9807 0.1518
vn -0.4515 0.7124 0.5372
vn -0.9189 0.3584 0.1649
vn 0.0935 0.7774 0.6220
vn 0.4515 0.7124 0.5372
vn 0.0000 0.8074 0.5900
vn 0.0000 0.7503 0.6611
vn -0.0935 0.7774 0.6220
vn 0.9189 0.3584 0.1649
vn -0.8218 -0.5503 0.1474
vn -0.4524 -0.0699 -0.8891
vn 0.8201 0.5517 0.1520
vn 0.4588 0.0750 -0.8854
vn -0.9163 -0.1702 0.3625
vn 0.7994 0.5873 0.1263
vn 0.4606 0.0798 -0.8840
vn -0.7994 -0.5873 0.1263
vn -0.4592 -0.0749 -0.8852
vn 0.9163 -0.1702 0.3625
vn -0.9223 -0.1782 0.3429
vn -0.7456 -0.3970 0.5352
vn -0.7621 -0.6359 -0.1214
vn -0.9223 0.1782 0.3429
vn -0.7456 0.3970 0.5352
vn 0.7660 -0.6361 -0.0929
vn 0.7580 -0.3528 0.5485
vn -0.7580 -0.3528 0.5485
vn -0.7660 -0.6361 -0.0929
vn -0.7621 0.6359 -0.1214
vn -0.9894 0.0515 -0.1360
vn -0.7660 0.6361 -0.0929
vn 0.9894 0.0515 -0.1360
vn 0.7660 0.6361 -0.0929
vn 0.7510 0.6517 -0.1062
vn 0.7510 -0.6517 -0.1062
vn -0.9887 -0.0526 -0.1403
vn -0.9887 0.0526 -0.1403
vn 0.1478 -0.9551 0.2568
vn -0.1478 -0.9551 0.2569
vn 0.0000 -0.0000 -1.0000
# 244 vertex normals

vt 0.0000 0.0000 0.0000
# 1 texture coords

o Cuerpo_carro
g Cuerpo_carro
usemtl wire_224086086
s off
f 1/1/1 2/1/1 3/1/1 4/1/1 5/1/1 
f 6/1/2 7/1/2 8/1/2 9/1/2 
f 10/1/3 11/1/3 12/1/3 13/1/3 
f 14/1/4 15/1/4 16/1/4 17/1/4 
f 18/1/5 19/1/5 20/1/5 21/1/5 
f 22/1/6 23/1/6 24/1/6 
f 25/1/7 6/1/7 26/1/7 22/1/7 24/1/7 
f 27/1/8 28/1/8 29/1/8 30/1/8 
f 9/1/9 31/1/9 32/1/9 6/1/9 
f 33/1/10 10/1/10 13/1/10 34/1/10 
f 35/1/11 36/1/11 37/1/11 38/1/11 
f 39/1/11 40/1/11 41/1/11 42/1/11 
f 43/1/12 26/1/12 44/1/12 45/1/12 
f 46/1/12 47/1/12 48/1/12 49/1/12 
f 24/1/13 23/1/13 50/1/13 51/1/13 
f 52/1/14 40/1/14 39/1/14 
f 23/1/15 53/1/15 54/1/15 50/1/15 
f 47/1/16 55/1/16 56/1/16 
f 57/1/11 58/1/11 38/1/11 37/1/11 
f 59/1/11 60/1/11 57/1/11 37/1/11 
f 53/1/17 61/1/17 62/1/17 54/1/17 
f 52/1/18 63/1/18 64/1/18 65/1/18 
f 40/1/19 66/1/19 67/1/19 68/1/19 
f 24/1/20 51/1/20 62/1/20 61/1/20 
f 52/1/21 65/1/21 66/1/21 40/1/21 
f 68/1/22 67/1/22 64/1/22 63/1/22 
f 69/1/23 3/1/23 15/1/23 19/1/23 36/1/23 35/1/23 
f 15/1/24 3/1/24 2/1/24 
f 52/1/25 39/1/25 42/1/25 70/1/25 36/1/25 19/1/25 28/1/25 
f 26/1/26 6/1/26 11/1/26 71/1/26 46/1/26 
f 72/1/27 9/1/27 8/1/27 73/1/27 
f 72/1/28 73/1/28 74/1/28 25/1/28 
f 6/1/29 25/1/29 74/1/29 7/1/29 
f 75/1/30 11/1/30 76/1/30 77/1/30 
f 11/1/29 6/1/29 32/1/29 78/1/29 79/1/29 76/1/29 
f 27/1/31 30/1/31 80/1/31 18/1/31 
f 19/1/32 18/1/32 80/1/32 81/1/32 
f 19/1/33 81/1/33 29/1/33 28/1/33 
f 14/1/34 82/1/34 83/1/34 15/1/34 
f 14/1/35 18/1/35 21/1/35 82/1/35 
f 84/1/16 85/1/16 86/1/16 
f 87/1/12 88/1/12 45/1/12 44/1/12 
f 22/1/12 89/1/12 90/1/12 23/1/12 
f 42/1/11 41/1/11 59/1/11 70/1/11 
f 70/1/11 59/1/11 37/1/11 36/1/11 
f 89/1/12 43/1/12 45/1/12 90/1/12 
f 49/1/12 48/1/12 91/1/12 92/1/12 
f 3/1/11 69/1/11 93/1/11 86/1/11 
f 75/1/36 77/1/36 94/1/36 95/1/36 31/1/36 9/1/36 
f 92/1/12 91/1/12 44/1/12 26/1/12 
f 19/1/33 15/1/33 83/1/33 20/1/33 
f 35/1/11 38/1/11 93/1/11 69/1/11 
f 96/1/37 97/1/37 16/1/37 15/1/37 
f 75/1/38 98/1/38 12/1/38 11/1/38 
f 33/1/39 34/1/39 97/1/39 96/1/39 
f 46/1/40 71/1/40 99/1/40 5/1/40 4/1/40 
f 46/1/41 4/1/41 100/1/41 55/1/41 47/1/41 
f 3/1/42 86/1/42 85/1/42 100/1/42 4/1/42 
f 91/1/12 101/1/12 87/1/12 44/1/12 
f 93/1/11 102/1/11 103/1/11 84/1/11 86/1/11 
f 48/1/12 47/1/12 56/1/12 104/1/12 105/1/12 
s 1
f 52/1/43 28/1/44 106/1/45 63/1/46 
f 107/1/47 108/1/48 109/1/49 110/1/50 
f 111/1/51 112/1/52 113/1/53 114/1/54 
f 112/1/52 72/1/55 115/1/56 113/1/53 
f 1/1/57 5/1/58 33/1/59 96/1/60 
f 99/1/61 10/1/62 33/1/59 5/1/58 
f 61/1/63 116/1/64 117/1/65 118/1/66 
f 119/1/67 9/1/68 72/1/55 112/1/52 
f 110/1/50 109/1/49 111/1/51 120/1/69 
f 27/1/70 18/1/71 110/1/50 120/1/69 
f 2/1/72 1/1/57 96/1/60 15/1/73 
f 111/1/51 114/1/54 121/1/74 120/1/69 
f 63/1/46 106/1/45 117/1/65 116/1/64 
f 109/1/49 119/1/67 112/1/52 111/1/51 
f 24/1/75 61/1/63 118/1/66 25/1/76 
f 71/1/77 11/1/78 10/1/62 99/1/61 
f 27/1/70 122/1/79 123/1/80 28/1/44 
f 108/1/48 107/1/47 124/1/81 125/1/82 
f 72/1/55 25/1/76 126/1/83 115/1/56 
f 117/1/65 106/1/45 127/1/84 128/1/85 
f 117/1/65 128/1/85 129/1/86 118/1/66 
f 106/1/45 28/1/44 123/1/80 127/1/84 
f 118/1/66 129/1/86 126/1/83 25/1/76 
f 120/1/69 121/1/74 122/1/79 27/1/70 
f 119/1/67 130/1/87 75/1/88 9/1/68 
f 14/1/89 107/1/47 110/1/50 18/1/71 
f 109/1/49 108/1/48 130/1/87 119/1/67 
f 107/1/47 14/1/89 17/1/90 124/1/81 
f 130/1/87 131/1/91 98/1/92 75/1/88 
f 108/1/48 125/1/82 131/1/91 130/1/87 
f 132/1/93 68/1/94 63/1/94 116/1/93 
f 61/1/95 53/1/95 132/1/93 116/1/93 
s off
f 32/1/96 78/1/96 78/1/96 32/1/96 
f 74/1/29 133/1/29 134/1/29 7/1/29 
f 81/1/33 135/1/33 136/1/33 29/1/33 
f 79/1/96 76/1/96 76/1/96 79/1/96 
f 78/1/29 32/1/29 137/1/29 138/1/29 76/1/29 79/1/29 
f 78/1/96 79/1/96 79/1/96 78/1/96 
f 83/1/33 139/1/33 140/1/33 20/1/33 
f 98/1/38 141/1/38 142/1/38 12/1/38 
f 17/1/4 16/1/4 143/1/4 144/1/4 
f 13/1/97 12/1/97 142/1/97 145/1/97 
f 97/1/98 146/1/98 143/1/98 16/1/98 
f 34/1/99 147/1/99 146/1/99 97/1/99 
f 34/1/100 13/1/100 145/1/100 147/1/100 
s 1
f 114/1/54 113/1/53 148/1/101 149/1/102 
f 128/1/85 127/1/84 150/1/103 151/1/104 
f 127/1/84 123/1/80 152/1/105 150/1/103 
f 129/1/86 153/1/106 154/1/107 126/1/83 
f 125/1/82 155/1/108 156/1/109 131/1/91 
f 125/1/82 124/1/81 157/1/110 155/1/108 
f 124/1/81 17/1/90 144/1/111 157/1/110 
f 131/1/91 156/1/109 141/1/112 98/1/92 
f 113/1/53 115/1/56 158/1/113 148/1/101 
f 121/1/74 159/1/114 160/1/115 122/1/79 
f 114/1/54 149/1/102 159/1/114 121/1/74 
f 115/1/56 126/1/83 154/1/107 158/1/113 
f 122/1/79 160/1/115 152/1/105 123/1/80 
f 128/1/85 151/1/104 153/1/106 129/1/86 
s off
f 7/1/2 134/1/2 161/1/2 8/1/2 
f 76/1/96 77/1/96 77/1/96 76/1/96 
f 31/1/96 32/1/96 32/1/96 31/1/96 
f 77/1/96 94/1/96 94/1/96 77/1/96 
f 31/1/9 162/1/9 137/1/9 32/1/9 
f 77/1/30 76/1/30 138/1/30 163/1/30 
f 73/1/116 8/1/116 161/1/116 164/1/116 
f 73/1/117 164/1/117 133/1/117 74/1/117 
f 81/1/32 80/1/32 165/1/32 135/1/32 
f 82/1/34 166/1/34 139/1/34 83/1/34 
f 21/1/5 20/1/5 140/1/5 167/1/5 
f 30/1/31 168/1/31 165/1/31 80/1/31 
f 30/1/118 29/1/118 136/1/118 168/1/118 
f 94/1/96 95/1/96 95/1/96 94/1/96 
f 82/1/35 21/1/35 167/1/35 166/1/35 
f 95/1/96 31/1/96 31/1/96 95/1/96 
f 95/1/36 169/1/36 162/1/36 31/1/36 
f 94/1/36 77/1/36 163/1/36 169/1/36 95/1/36 
s 1
f 134/1/119 133/1/120 164/1/121 161/1/122 
f 135/1/123 165/1/124 168/1/125 136/1/126 
f 138/1/127 137/1/128 162/1/129 169/1/130 163/1/131 
f 140/1/132 139/1/133 166/1/134 167/1/135 
f 147/1/136 155/1/108 157/1/110 146/1/137 
f 145/1/138 142/1/139 141/1/112 156/1/109 
f 146/1/137 157/1/110 144/1/111 143/1/140 
f 147/1/136 145/1/138 156/1/109 155/1/108 
f 150/1/103 152/1/105 160/1/115 159/1/114 
f 151/1/104 149/1/102 148/1/101 153/1/106 
f 151/1/104 150/1/103 159/1/114 149/1/102 
f 153/1/106 148/1/101 158/1/113 154/1/107 
s off
f 88/1/141 170/1/141 171/1/141 45/1/141 
f 45/1/142 171/1/142 172/1/142 90/1/142 
f 58/1/143 173/1/143 174/1/143 38/1/143 
f 102/1/144 93/1/144 175/1/144 176/1/144 
f 38/1/145 174/1/145 175/1/145 93/1/145 
f 60/1/146 59/1/146 177/1/146 178/1/146 
f 41/1/145 179/1/145 177/1/145 59/1/145 
f 171/1/12 170/1/12 180/1/12 181/1/12 
f 171/1/12 181/1/12 182/1/12 172/1/12 
f 170/1/147 183/1/147 180/1/147 
f 177/1/11 184/1/11 185/1/11 178/1/11 
f 179/1/11 186/1/11 184/1/11 177/1/11 
f 178/1/148 185/1/148 187/1/148 
f 175/1/11 188/1/11 189/1/11 176/1/11 
f 174/1/11 173/1/11 190/1/11 191/1/11 
f 174/1/11 191/1/11 188/1/11 175/1/11 
f 176/1/149 189/1/149 192/1/149 
f 173/1/150 193/1/150 190/1/150 
f 194/1/151 195/1/151 196/1/151 
s 1
f 104/1/152 197/1/153 198/1/154 105/1/155 
f 199/1/156 200/1/157 201/1/158 202/1/159 
f 57/1/160 203/1/161 193/1/162 58/1/163 
f 87/1/164 204/1/165 183/1/166 88/1/167 
f 132/1/168 205/1/169 206/1/170 68/1/171 
f 207/1/172 103/1/173 208/1/174 
f 209/1/175 210/1/176 211/1/176 212/1/177 
f 68/1/171 206/1/170 213/1/178 40/1/179 
f 214/1/180 215/1/181 216/1/182 217/1/183 
f 209/1/175 207/1/172 218/1/176 210/1/176 
f 219/1/184 220/1/185 221/1/186 222/1/187 
f 197/1/153 212/1/177 211/1/176 
f 223/1/188 224/1/189 216/1/182 225/1/190 
f 226/1/191 217/1/183 216/1/182 224/1/189 
f 227/1/192 221/1/186 220/1/185 228/1/193 
f 228/1/193 220/1/185 217/1/183 226/1/191 
f 215/1/181 200/1/157 225/1/190 216/1/182 
f 229/1/194 40/1/179 213/1/178 230/1/195 
f 53/1/196 23/1/197 231/1/198 232/1/199 
f 214/1/180 217/1/183 220/1/185 219/1/184 
f 233/1/200 222/1/187 221/1/186 227/1/192 
f 132/1/168 53/1/196 232/1/199 205/1/169 
f 234/1/201 235/1/202 231/1/198 23/1/197 
f 233/1/200 227/1/192 235/1/202 234/1/201 
f 199/1/156 223/1/188 225/1/190 200/1/157 
f 229/1/194 230/1/195 223/1/188 199/1/156 
f 232/1/199 236/1/203 237/1/204 205/1/169 
f 236/1/203 228/1/193 226/1/191 237/1/204 
f 232/1/199 231/1/198 235/1/202 236/1/203 
f 235/1/202 227/1/192 228/1/193 236/1/203 
f 205/1/169 237/1/204 238/1/205 206/1/170 
f 237/1/204 226/1/191 224/1/189 238/1/205 
f 206/1/170 238/1/205 230/1/195 213/1/178 
f 238/1/205 224/1/189 223/1/188 230/1/195 
f 239/1/206 212/1/177 104/1/152 56/1/207 
f 85/1/208 240/1/209 241/1/210 100/1/211 
f 240/1/209 207/1/172 209/1/175 241/1/210 
f 55/1/212 100/1/211 241/1/210 239/1/206 
f 241/1/210 209/1/175 212/1/177 239/1/206 
f 85/1/208 84/1/213 240/1/209 
f 240/1/209 84/1/213 103/1/173 207/1/172 
f 56/1/207 55/1/212 239/1/206 
f 208/1/174 218/1/176 207/1/172 
f 233/1/200 242/1/214 243/1/215 222/1/187 
f 60/1/216 187/1/217 203/1/161 57/1/160 
f 23/1/197 90/1/218 234/1/201 
f 102/1/219 192/1/220 208/1/174 103/1/173 
f 101/1/221 196/1/222 204/1/165 87/1/164 
f 212/1/177 197/1/153 104/1/152 
f 229/1/194 199/1/156 202/1/159 41/1/223 
f 101/1/221 91/1/224 244/1/225 194/1/226 
f 48/1/227 245/1/228 244/1/225 91/1/224 
f 202/1/159 246/1/229 179/1/230 41/1/223 
f 242/1/214 90/1/218 172/1/231 247/1/232 
f 105/1/155 248/1/233 245/1/228 48/1/227 
f 172/1/231 182/1/12 249/1/234 247/1/232 
f 183/1/166 170/1/235 88/1/167 
f 242/1/214 247/1/232 243/1/215 
f 247/1/232 249/1/234 243/1/215 
f 179/1/230 246/1/229 250/1/236 186/1/11 
f 201/1/158 246/1/229 202/1/159 
f 246/1/229 201/1/158 250/1/236 
f 41/1/223 40/1/179 229/1/194 
f 234/1/201 90/1/218 242/1/214 233/1/200 
f 60/1/216 178/1/237 187/1/217 
f 102/1/219 176/1/238 192/1/220 
f 193/1/162 173/1/239 58/1/163 
f 198/1/154 248/1/233 105/1/155 
f 245/1/228 248/1/233 251/1/240 252/1/12 
f 245/1/228 252/1/12 253/1/12 244/1/225 
f 244/1/225 253/1/12 195/1/241 194/1/226 
f 248/1/233 198/1/154 251/1/240 
f 101/1/221 194/1/226 196/1/222 
s off
f 67/1/242 66/1/242 65/1/242 64/1/242 
f 51/1/243 50/1/243 54/1/243 62/1/243 
f 218/1/244 208/1/244 192/1/244 254/1/244 
f 255/1/244 211/1/244 210/1/244 256/1/244 
f 257/1/244 258/1/244 259/1/244 260/1/244 
f 261/1/244 203/1/244 187/1/244 262/1/244 
f 258/1/244 261/1/244 262/1/244 259/1/244 
f 210/1/244 218/1/244 254/1/244 256/1/244 
f 183/1/244 204/1/244 257/1/244 260/1/244 
f 198/1/244 197/1/244 211/1/244 255/1/244 
f 243/1/244 263/1/244 219/1/244 222/1/244 
f 264/1/244 265/1/244 215/1/244 214/1/244 
f 215/1/244 265/1/244 201/1/244 200/1/244 
f 263/1/244 264/1/244 214/1/244 219/1/244 
f 183/1/244 260/1/244 263/1/244 243/1/244 
f 259/1/244 262/1/244 265/1/244 264/1/244 
f 265/1/244 262/1/244 187/1/244 201/1/244 
f 260/1/244 259/1/244 264/1/244 263/1/244 
f 196/1/244 198/1/244 255/1/244 266/1/244 
f 256/1/244 254/1/244 267/1/244 268/1/244 
f 266/1/244 255/1/244 256/1/244 268/1/244 
f 254/1/244 192/1/244 193/1/244 267/1/244 
f 267/1/244 193/1/244 203/1/244 261/1/244 
f 257/1/244 266/1/244 268/1/244 258/1/244 
f 268/1/244 267/1/244 261/1/244 258/1/244 
f 204/1/244 196/1/244 266/1/244 257/1/244 
# 239 polygons - 29 triangles

